<svg width="14" height="13" viewBox="0 0 14 13" fill="none" xmlns="http://www.w3.org/2000/svg">
<path d="M12.6875 0.625C13.3984 0.625 14 1.22656 14 1.9375V3.71484C14 4.17969 13.5898 4.5625 13.125 4.5625V11.125C13.125 12.1094 12.332 12.875 11.375 12.875H2.625C1.64062 12.875 0.875 12.1094 0.875 11.125L0.847656 4.5625C0.382812 4.5625 0 4.17969 0 3.6875V1.9375C0 1.22656 0.574219 0.625 1.3125 0.625H12.6875ZM11.375 11.5625C11.5938 11.5625 11.8125 11.3711 11.8125 11.125V4.5625H2.1875V11.125C2.1875 11.3711 2.37891 11.5625 2.625 11.5625H11.375ZM12.6875 3.25V1.9375H1.3125V3.25H12.6875ZM5.00391 7.1875C4.64844 7.1875 4.375 6.91406 4.375 6.53125C4.375 6.17578 4.64844 5.875 5.00391 5.875H8.96875C9.32422 5.875 9.625 6.17578 9.625 6.53125C9.625 6.91406 9.32422 7.1875 8.94141 7.1875H5.00391Z" fill="#18181B"/>
</svg>
