<svg width="18" height="19" viewBox="0 0 18 19" fill="none" xmlns="http://www.w3.org/2000/svg">
<path d="M9 1.375C7.73438 1.375 6.75 2.39453 6.75 3.625H11.25C11.25 2.39453 10.2305 1.375 9 1.375ZM5.625 3.625C5.625 1.76172 7.13672 0.25 9 0.25C10.8633 0.25 12.375 1.76172 12.375 3.625V3.76562C12.375 4.32812 11.918 4.75 11.3555 4.75H6.60938C6.04688 4.75 5.625 4.32812 5.625 3.76562V3.625ZM1.26562 3.80078C1.47656 3.58984 1.86328 3.58984 2.07422 3.80078L4.85156 6.57812C5.44922 6.15625 6.22266 5.875 7.03125 5.875H10.9688C11.7422 5.875 12.5156 6.15625 13.1133 6.57812L15.8906 3.80078C16.1016 3.58984 16.4883 3.58984 16.6992 3.80078C16.9102 4.01172 16.9102 4.39844 16.6992 4.60938L13.9219 7.38672C14.3438 7.98438 14.625 8.72266 14.625 9.53125V9.8125H17.4375C17.7188 9.8125 18 10.0938 18 10.375C18 10.6914 17.7188 10.9375 17.4375 10.9375H14.625V11.5C14.625 12.5898 14.3086 13.5742 13.8164 14.418L16.6992 17.3008C16.9102 17.5117 16.9102 17.8984 16.6992 18.1094C16.4883 18.3203 16.1016 18.3203 15.8906 18.1094L13.1133 15.332C12.0938 16.457 10.6172 17.125 9 17.125C7.34766 17.125 5.87109 16.457 4.85156 15.332L2.07422 18.1094C1.86328 18.3203 1.47656 18.3203 1.26562 18.1094C1.05469 17.8984 1.05469 17.5117 1.26562 17.3008L4.14844 14.418C3.65625 13.5742 3.375 12.5898 3.375 11.5V10.9375H0.5625C0.246094 10.9375 0 10.6914 0 10.375C0 10.0938 0.246094 9.8125 0.5625 9.8125H3.375V9.53125C3.375 8.75781 3.62109 7.98438 4.07812 7.38672L1.26562 4.60938C1.05469 4.39844 1.05469 4.01172 1.26562 3.80078ZM4.5 11.5C4.5 13.8203 6.1875 15.7188 8.4375 15.9648V9.25C8.4375 8.96875 8.68359 8.6875 9 8.6875C9.28125 8.6875 9.5625 8.96875 9.5625 9.25V15.9648C11.7773 15.7188 13.5 13.8203 13.5 11.5V10.375V9.53125C13.5 8.16016 12.3398 7 10.9688 7H7.03125C5.625 7 4.5 8.16016 4.5 9.53125V10.375V11.5Z" fill="#27272A"/>
</svg>
