<svg width="14" height="13" viewBox="0 0 14 13" fill="none" xmlns="http://www.w3.org/2000/svg">
<path d="M12.4688 3.6875H11.375V9.8125H12.4688C12.8242 9.8125 13.125 10.1133 13.125 10.4688C13.125 10.8516 12.8242 11.125 12.4688 11.125H11.375V12.2188C11.375 12.6016 11.0742 12.875 10.7188 12.875C10.3359 12.875 10.0625 12.6016 10.0625 12.2188V11.125H3.9375V12.2188C3.9375 12.6016 3.63672 12.875 3.28125 12.875C2.89844 12.875 2.625 12.6016 2.625 12.2188V11.125H1.53125C1.14844 11.125 0.875 10.8516 0.875 10.4688C0.875 10.1133 1.14844 9.8125 1.53125 9.8125H2.625V3.6875H1.53125C1.14844 3.6875 0.875 3.41406 0.875 3.03125C0.875 2.67578 1.14844 2.375 1.53125 2.375H2.625V1.28125C2.625 0.925781 2.89844 0.625 3.28125 0.625C3.63672 0.625 3.9375 0.925781 3.9375 1.28125V2.375H10.0625V1.28125C10.0625 0.925781 10.3359 0.625 10.7188 0.625C11.0742 0.625 11.375 0.925781 11.375 1.28125V2.375H12.4688C12.8242 2.375 13.125 2.67578 13.125 3.03125C13.125 3.41406 12.8242 3.6875 12.4688 3.6875ZM3.9375 9.8125H10.0625V3.6875H3.9375V9.8125Z" fill="#18181B"/>
</svg>
