<svg width="16" height="11" viewBox="0 0 16 11" fill="none" xmlns="http://www.w3.org/2000/svg">
<path d="M11.9375 4.46484L10.6523 5.75L11.9375 7.03516C12.2109 7.30859 12.2109 7.71875 11.9375 7.96484C11.6914 8.23828 11.2812 8.23828 11.0352 7.96484L9.75 6.67969L8.4375 7.96484C8.19141 8.23828 7.78125 8.23828 7.53516 7.96484C7.26172 7.71875 7.26172 7.30859 7.53516 7.03516L8.82031 5.75L7.53516 4.46484C7.26172 4.21875 7.26172 3.80859 7.53516 3.53516C7.78125 3.28906 8.19141 3.28906 8.4375 3.53516L9.75 4.84766L11.0352 3.53516C11.2812 3.28906 11.6914 3.28906 11.9375 3.53516C12.2109 3.80859 12.2109 4.21875 11.9375 4.46484ZM14.125 0.5C15.082 0.5 15.875 1.29297 15.875 2.25V9.25C15.875 10.2344 15.082 11 14.125 11H5.73047C5.26562 11 4.82812 10.8359 4.5 10.5078L0.371094 6.37891C0.207031 6.21484 0.125 5.99609 0.125 5.75C0.125 5.53125 0.207031 5.3125 0.371094 5.14844L4.5 1.01953C4.82812 0.691406 5.26562 0.5 5.73047 0.5H14.125ZM14.5625 2.25C14.5625 2.03125 14.3438 1.8125 14.125 1.8125H5.73047C5.62109 1.8125 5.48438 1.86719 5.40234 1.94922L1.60156 5.75L5.40234 9.57812C5.48438 9.66016 5.62109 9.6875 5.73047 9.6875H14.125C14.3438 9.6875 14.5625 9.49609 14.5625 9.25V2.25Z" fill="#18181B"/>
</svg>
