<svg width="14" height="12" viewBox="0 0 14 12" fill="none" xmlns="http://www.w3.org/2000/svg">
<path d="M3.69141 11.5898L0.191406 8.08984C0.0546875 7.98047 0 7.81641 0 7.625C0 7.46094 0.0546875 7.29688 0.191406 7.1875L3.69141 3.6875C3.9375 3.41406 4.34766 3.41406 4.59375 3.6875C4.86719 3.93359 4.86719 4.34375 4.59375 4.58984L2.21484 6.96875H12.6875V1.28125C12.6875 0.925781 12.9609 0.625 13.3438 0.625C13.6992 0.625 14 0.925781 14 1.28125V7.625C14 8.00781 13.6992 8.28125 13.3438 8.28125H2.21484L4.59375 10.6875C4.86719 10.9336 4.86719 11.3438 4.59375 11.5898C4.34766 11.8633 3.9375 11.8633 3.69141 11.5898Z" fill="#A1A1AA"/>
</svg>
