<svg width="100" height="24" viewBox="0 0 100 24" fill="none" xmlns="http://www.w3.org/2000/svg">
<g clip-path="url(#clip0)">
<path fill-rule="evenodd" clip-rule="evenodd" d="M75.6838 11.9244C75.6838 5.35355 80.9877 0.0268555 87.5302 0.0268555C94.0729 0.0268555 99.376 5.35355 99.376 11.9244C99.376 18.4951 94.0729 23.8219 87.5302 23.8219C80.9877 23.8219 75.6838 18.4951 75.6838 11.9244Z" fill="#6431E0"/>
<path fill-rule="evenodd" clip-rule="evenodd" d="M65.323 22.7825V1.0441C65.323 0.482303 64.8695 0.0268555 64.3101 0.0268555H51.1132C50.2999 0.0268555 49.8183 0.941106 50.2759 1.61639L63.4727 23.3547C64.0338 24.1827 65.323 23.7838 65.323 22.7825Z" fill="#6431E0"/>
<path fill-rule="evenodd" clip-rule="evenodd" d="M28.9915 22.8036C28.9915 23.3669 29.4471 23.8231 30.0081 23.8208C36.8389 23.7934 49.1011 23.2356 49.1011 11.9247C49.1011 0.473118 36.8368 0.0422222 30.0061 0.0275903C29.4458 0.0263769 28.9915 0.482182 28.9915 1.04484V22.8036Z" fill="#6431E0"/>
<path fill-rule="evenodd" clip-rule="evenodd" d="M12.9741 1.0914V10.9072C12.9741 11.4691 13.4276 11.9244 13.987 11.9244H23.7605C24.3571 11.9244 24.8246 11.4093 24.7694 10.8128C24.2452 5.12919 19.7402 0.604761 14.081 0.0781519C13.4871 0.0229072 12.9741 0.492416 12.9741 1.0914ZM11.8463 22.7575C11.8463 23.3566 11.3334 23.826 10.7395 23.7708C4.71596 23.2102 0 18.1205 0 11.9245C0 5.7285 4.71596 0.638719 10.7395 0.0782064C11.3334 0.0229616 11.8463 0.49247 11.8463 1.09145V22.7575Z" fill="#6431E0"/>
<ellipse cx="16.4777" cy="20.0597" rx="3.9403" ry="3.9403" fill="#6431E0"/>
<ellipse cx="70.2088" cy="3.9403" rx="3.9403" ry="3.9403" fill="#6431E0"/>
</g>
<defs>
<clipPath id="clip0">
<rect width="99.403" height="24" fill="white"/>
</clipPath>
</defs>
</svg>
