<svg width="16" height="16" viewBox="0 0 16 16" fill="none" xmlns="http://www.w3.org/2000/svg">
    <path fill-rule="evenodd" clip-rule="evenodd" d="M8.37924 0.657253V6.99669C8.37924 7.35957 8.67212 7.65367 9.03339 7.65367H15.3456C15.7308 7.65367 16.0327 7.32099 15.9972 6.93575C15.6585 3.26502 12.749 0.342962 9.09407 0.00285556C8.71049 -0.0328238 8.37924 0.270404 8.37924 0.657253ZM7.65087 14.6507C7.65087 15.0376 7.31961 15.3408 6.93603 15.3051C3.04577 14.9431 0 11.6559 0 7.65426C0 3.65264 3.04577 0.365442 6.93603 0.0034395C7.31961 -0.0322398 7.65087 0.270988 7.65087 0.657837V14.6507ZM8.37924 12.8163C8.37924 11.4239 9.50321 10.2951 10.8897 10.2951C12.2762 10.2951 13.4001 11.4239 13.4001 12.8163C13.4001 14.2088 12.2762 15.3376 10.8897 15.3376C9.50321 15.3376 8.37924 14.2088 8.37924 12.8163Z" fill="#6431E0"/>
</svg>
