<svg width="21" height="21" viewBox="0 0 21 21" fill="none" xmlns="http://www.w3.org/2000/svg">
<path d="M10.8008 0.5C16.3086 0.5 20.8008 4.99219 20.8008 10.5C20.8008 16.0469 16.3086 20.5 10.8008 20.5C5.25391 20.5 0.800781 16.0469 0.800781 10.5C0.800781 4.99219 5.25391 0.5 10.8008 0.5ZM10.8008 18.625C11.0742 18.625 11.8164 18.3516 12.6367 16.75C12.9883 16.0469 13.2617 15.2266 13.4961 14.25H8.06641C8.30078 15.2266 8.57422 16.0469 8.92578 16.75C9.74609 18.3516 10.4883 18.625 10.8008 18.625ZM7.75391 12.375H13.8086C13.8867 11.7891 13.9258 11.1641 13.9258 10.5C13.9258 9.875 13.8867 9.25 13.8086 8.625H7.75391C7.67578 9.25 7.67578 9.875 7.67578 10.5C7.67578 11.1641 7.67578 11.7891 7.75391 12.375ZM13.4961 6.75C13.2617 5.8125 12.9883 4.99219 12.6367 4.28906C11.8164 2.6875 11.0742 2.375 10.8008 2.375C10.4883 2.375 9.74609 2.6875 8.92578 4.28906C8.57422 4.99219 8.30078 5.8125 8.06641 6.75H13.4961ZM15.6836 8.625C15.7617 9.25 15.8008 9.875 15.8008 10.5C15.8008 11.1641 15.7617 11.7891 15.6836 12.375H18.6914C18.8477 11.7891 18.9258 11.1641 18.9258 10.5C18.9258 9.875 18.8477 9.25 18.6914 8.625H15.6836ZM14.1602 3.11719C14.707 4.13281 15.1367 5.38281 15.4102 6.75H17.9883C17.168 5.14844 15.8008 3.85938 14.1602 3.11719ZM7.40234 3.11719C5.76172 3.85938 4.39453 5.14844 3.57422 6.75H6.15234C6.42578 5.38281 6.85547 4.13281 7.40234 3.11719ZM2.67578 10.5C2.67578 11.1641 2.71484 11.7891 2.87109 12.375H5.87891C5.80078 11.7891 5.80078 11.1641 5.80078 10.5C5.80078 9.875 5.80078 9.25 5.87891 8.625H2.87109C2.71484 9.25 2.67578 9.875 2.67578 10.5ZM17.9883 14.25H15.4102C15.1367 15.6562 14.707 16.9062 14.1602 17.9219C15.8008 17.1797 17.168 15.8906 17.9883 14.25ZM6.15234 14.25H3.57422C4.39453 15.8906 5.76172 17.1797 7.40234 17.9219C6.85547 16.9062 6.42578 15.6562 6.15234 14.25Z" fill="#18181B"/>
</svg>
