<?xml version="1.0" encoding="UTF-8"?>
<svg width="26.042mm" height="23.158mm" version="1.1" viewBox="0 0 26.042 23.158" xmlns="http://www.w3.org/2000/svg">
<g transform="translate(-148.08 -130.93)">
<g transform="matrix(.39542 0 0 -.39542 10.148 250.64)">
<path d="m377.18 245.11-27.879 9.251 6.604 3.675m25.45 43.69c-7.158 0-12.96-5.807-12.96-12.962 0-2.07 0.322-4.116 1.349-5.759 2.342-3.743 10.779-13.99 10.779-13.99 0.199-0.256 0.508-0.405 0.832-0.405 0.325 0 0.633 0.149 0.832 0.405 0 0 8.44 10.247 10.782 13.99 1.025 1.643 1.346 3.689 1.346 5.759 0 7.155-5.802 12.962-12.96 12.962zm7.065-11.314-3.224-3.137 0.761-4.433c0.025-0.162-0.037-0.321-0.171-0.421-0.073-0.049-0.161-0.08-0.25-0.08-0.067 0-0.133 0.016-0.198 0.049l-3.983 2.095-3.978-2.095c-0.147-0.077-0.321-0.062-0.451 0.031-0.134 0.1-0.198 0.259-0.172 0.421l0.762 4.433-3.225 3.137c-0.113 0.116-0.156 0.284-0.104 0.44 0.048 0.156 0.184 0.268 0.342 0.292l4.453 0.645 1.993 4.033c0.069 0.148 0.218 0.24 0.38 0.24s0.312-0.092 0.38-0.24l1.993-4.033 4.454-0.645c0.162-0.024 0.294-0.136 0.342-0.292 0.054-0.156 0.013-0.324-0.104-0.44zm-39.035-28.413 27.795-16.889 36.978 21.352-7.409 4.446m-32.211 5.571-25.153-14.48 27.795-8.165 36.978 21.352-22.166 6.376" fill="none" stroke="#011520" stroke-linejoin="round" stroke-miterlimit="10" stroke-width="2"/>
</g>
</g>
</svg>
