<svg width="104" height="104" viewBox="0 0 104 104" fill="none" xmlns="http://www.w3.org/2000/svg">
<g filter="url(#filter0_d_519_898)">
<rect x="4" width="96" height="96" rx="48" fill="#F59E0B" shape-rendering="crispEdges"/>
<path d="M38.1142 38.2819L38.1271 38.2694L38.139 38.256C39.1398 37.1305 39.2559 35.4767 38.111 34.3612C37.2136 33.4868 36.1604 33.5743 35.2939 33.6462C35.2119 33.653 35.1315 33.6597 35.0531 33.6654C34.5722 33.7004 34.1291 33.712 33.6868 33.607C33.2559 33.5048 32.8013 33.2854 32.3212 32.8176C31.6044 32.1192 31.316 31.0914 31.493 29.9339C31.6705 28.7738 32.3165 27.5083 33.4323 26.4212C34.5096 25.3715 35.8269 24.7503 37.0495 24.575C38.2784 24.3987 39.3547 24.6764 40.0344 25.3386C40.5145 25.8064 40.7369 26.2465 40.8402 26.6598C40.9465 27.0849 40.935 27.5115 40.8992 27.9794C40.8933 28.0553 40.8865 28.1333 40.8796 28.213C40.8056 29.0583 40.7146 30.099 41.6187 30.9799C42.734 32.0665 44.359 32.069 45.4738 30.9829L50.205 26.3731C51.1273 25.4744 52.791 25.4751 53.7168 26.3771L58.3914 30.9317C59.4879 32.0001 61.1793 32.1029 62.3123 30.9989C63.2155 30.1189 63.1223 29.0773 63.0466 28.2322C63.0395 28.1525 63.0325 28.0745 63.0266 27.9986C62.9898 27.5305 62.9775 27.1039 63.0828 26.6792C63.1852 26.2664 63.4065 25.8271 63.8853 25.3607C64.5999 24.6644 65.6955 24.3772 66.9283 24.5478C68.1575 24.718 69.4755 25.341 70.5553 26.3931C71.6698 27.479 72.3033 28.759 72.4684 29.9357C72.6335 31.1119 72.3314 32.1576 71.6149 32.8557C71.1362 33.3222 70.6825 33.5405 70.252 33.6419C69.8101 33.7459 69.3671 33.7335 68.886 33.6976C68.8075 33.6917 68.7271 33.6849 68.645 33.6779C67.7788 33.6044 66.7247 33.5148 65.8282 34.3883C64.6864 35.5008 64.795 37.1711 65.8972 38.2449L74.7855 46.9052C75.7624 47.857 75.7122 49.3917 74.7897 50.2906L70.0584 54.9004C69.3333 55.607 68.3273 55.607 67.5991 54.8974C67.0462 54.3587 67.0912 53.7927 67.1636 52.8823C67.1686 52.8197 67.1737 52.7555 67.1788 52.6896C67.2159 52.2043 67.2405 51.6416 67.0929 51.0511C66.9423 50.4487 66.6211 49.8469 66.0148 49.2562C65.0198 48.2868 63.5837 47.9646 62.1358 48.1623C60.6844 48.3605 59.1737 49.0833 57.9511 50.2746C56.6974 51.4962 55.9495 52.9723 55.7531 54.3915C55.5566 55.8111 55.9128 57.2001 56.9059 58.1677C57.5122 58.7584 58.127 59.0687 58.7385 59.2138C59.3385 59.3562 59.9108 59.3327 60.4082 59.2965C60.4755 59.2916 60.5411 59.2867 60.6051 59.2819C61.5403 59.2112 62.1362 59.1662 62.6957 59.7113C63.3969 60.3945 63.3712 61.4161 62.6331 62.1353L53.762 70.7787C52.774 71.7414 51.2419 71.7408 50.2503 70.7747L41.3619 62.1144C40.6205 61.392 40.5949 60.3704 41.2929 59.6902C41.8505 59.147 42.4459 59.193 43.382 59.2655C43.4458 59.2704 43.5113 59.2755 43.5784 59.2805C44.0758 59.3176 44.6482 59.3422 45.2481 59.2009C45.8596 59.057 46.4742 58.7476 47.0797 58.1576C48.0717 57.1911 48.4249 55.802 48.2256 54.3824C48.0264 52.9631 47.2758 51.4861 46.02 50.2626C44.7955 49.0694 43.2838 48.3439 41.8323 48.143C40.3844 47.9426 38.9482 48.2618 37.9543 49.2301C37.3488 49.8201 37.0285 50.4217 36.8791 51.0241C36.7327 51.6145 36.7584 52.1773 36.7965 52.6626C36.8017 52.7284 36.8069 52.7924 36.812 52.8548C36.8863 53.7661 36.9324 54.3315 36.3813 54.8684C35.6562 55.5749 34.6502 55.5749 33.922 54.8654L29.1815 50.2465C28.2706 49.359 28.2548 47.8884 29.2432 46.9253L38.1142 38.2819Z" fill="url(#paint0_linear_519_898)"/>
<path d="M38.1142 38.2819L38.1271 38.2694L38.139 38.256C39.1398 37.1305 39.2559 35.4767 38.111 34.3612C37.2136 33.4868 36.1604 33.5743 35.2939 33.6462C35.2119 33.653 35.1315 33.6597 35.0531 33.6654C34.5722 33.7004 34.1291 33.712 33.6868 33.607C33.2559 33.5048 32.8013 33.2854 32.3212 32.8176C31.6044 32.1192 31.316 31.0914 31.493 29.9339C31.6705 28.7738 32.3165 27.5083 33.4323 26.4212C34.5096 25.3715 35.8269 24.7503 37.0495 24.575C38.2784 24.3987 39.3547 24.6764 40.0344 25.3386C40.5145 25.8064 40.7369 26.2465 40.8402 26.6598C40.9465 27.0849 40.935 27.5115 40.8992 27.9794C40.8933 28.0553 40.8865 28.1333 40.8796 28.213C40.8056 29.0583 40.7146 30.099 41.6187 30.9799C42.734 32.0665 44.359 32.069 45.4738 30.9829L50.205 26.3731C51.1273 25.4744 52.791 25.4751 53.7168 26.3771L58.3914 30.9317C59.4879 32.0001 61.1793 32.1029 62.3123 30.9989C63.2155 30.1189 63.1223 29.0773 63.0466 28.2322C63.0395 28.1525 63.0325 28.0745 63.0266 27.9986C62.9898 27.5305 62.9775 27.1039 63.0828 26.6792C63.1852 26.2664 63.4065 25.8271 63.8853 25.3607C64.5999 24.6644 65.6955 24.3772 66.9283 24.5478C68.1575 24.718 69.4755 25.341 70.5553 26.3931C71.6698 27.479 72.3033 28.759 72.4684 29.9357C72.6335 31.1119 72.3314 32.1576 71.6149 32.8557C71.1362 33.3222 70.6825 33.5405 70.252 33.6419C69.8101 33.7459 69.3671 33.7335 68.886 33.6976C68.8075 33.6917 68.7271 33.6849 68.645 33.6779C67.7788 33.6044 66.7247 33.5148 65.8282 34.3883C64.6864 35.5008 64.795 37.1711 65.8972 38.2449L74.7855 46.9052C75.7624 47.857 75.7122 49.3917 74.7897 50.2906L70.0584 54.9004C69.3333 55.607 68.3273 55.607 67.5991 54.8974C67.0462 54.3587 67.0912 53.7927 67.1636 52.8823C67.1686 52.8197 67.1737 52.7555 67.1788 52.6896C67.2159 52.2043 67.2405 51.6416 67.0929 51.0511C66.9423 50.4487 66.6211 49.8469 66.0148 49.2562C65.0198 48.2868 63.5837 47.9646 62.1358 48.1623C60.6844 48.3605 59.1737 49.0833 57.9511 50.2746C56.6974 51.4962 55.9495 52.9723 55.7531 54.3915C55.5566 55.8111 55.9128 57.2001 56.9059 58.1677C57.5122 58.7584 58.127 59.0687 58.7385 59.2138C59.3385 59.3562 59.9108 59.3327 60.4082 59.2965C60.4755 59.2916 60.5411 59.2867 60.6051 59.2819C61.5403 59.2112 62.1362 59.1662 62.6957 59.7113C63.3969 60.3945 63.3712 61.4161 62.6331 62.1353L53.762 70.7787C52.774 71.7414 51.2419 71.7408 50.2503 70.7747L41.3619 62.1144C40.6205 61.392 40.5949 60.3704 41.2929 59.6902C41.8505 59.147 42.4459 59.193 43.382 59.2655C43.4458 59.2704 43.5113 59.2755 43.5784 59.2805C44.0758 59.3176 44.6482 59.3422 45.2481 59.2009C45.8596 59.057 46.4742 58.7476 47.0797 58.1576C48.0717 57.1911 48.4249 55.802 48.2256 54.3824C48.0264 52.9631 47.2758 51.4861 46.02 50.2626C44.7955 49.0694 43.2838 48.3439 41.8323 48.143C40.3844 47.9426 38.9482 48.2618 37.9543 49.2301C37.3488 49.8201 37.0285 50.4217 36.8791 51.0241C36.7327 51.6145 36.7584 52.1773 36.7965 52.6626C36.8017 52.7284 36.8069 52.7924 36.812 52.8548C36.8863 53.7661 36.9324 54.3315 36.3813 54.8684C35.6562 55.5749 34.6502 55.5749 33.922 54.8654L29.1815 50.2465C28.2706 49.359 28.2548 47.8884 29.2432 46.9253L38.1142 38.2819Z" stroke="url(#paint1_linear_519_898)" style="mix-blend-mode:overlay"/>
</g>
<defs>
<filter id="filter0_d_519_898" x="0" y="0" width="104" height="104" filterUnits="userSpaceOnUse" color-interpolation-filters="sRGB">
<feFlood flood-opacity="0" result="BackgroundImageFix"/>
<feColorMatrix in="SourceAlpha" type="matrix" values="0 0 0 0 0 0 0 0 0 0 0 0 0 0 0 0 0 0 127 0" result="hardAlpha"/>
<feOffset dy="4"/>
<feGaussianBlur stdDeviation="2"/>
<feComposite in2="hardAlpha" operator="out"/>
<feColorMatrix type="matrix" values="0 0 0 0 0 0 0 0 0 0 0 0 0 0 0 0 0 0 0.25 0"/>
<feBlend mode="normal" in2="BackgroundImageFix" result="effect1_dropShadow_519_898"/>
<feBlend mode="normal" in="SourceGraphic" in2="effect1_dropShadow_519_898" result="shape"/>
</filter>
<linearGradient id="paint0_linear_519_898" x1="33.3462" y1="26.3192" x2="61.1369" y2="63.3204" gradientUnits="userSpaceOnUse">
<stop stop-color="white"/>
<stop offset="1" stop-color="white" stop-opacity="0"/>
</linearGradient>
<linearGradient id="paint1_linear_519_898" x1="33.3462" y1="26.3192" x2="60.2459" y2="63.9245" gradientUnits="userSpaceOnUse">
<stop stop-color="white"/>
<stop offset="0.760417" stop-color="white" stop-opacity="0"/>
</linearGradient>
</defs>
</svg>
