<?xml version="1.0" encoding="UTF-8"?>
<svg width="24.556mm" height="25.096mm" version="1.1" viewBox="0 0 24.556 25.096" xmlns="http://www.w3.org/2000/svg">
<g transform="translate(-74.055 -140.7)">
<path d="m98.215 163.66-4.299-6.4181c-0.11665-0.22935-0.41717-0.38-0.66985-0.33413l-16.557 8.4932" fill="none" stroke="#011520" stroke-linecap="round" stroke-linejoin="round" stroke-miterlimit="10" stroke-width=".79084"/>
<g transform="matrix(.39542 0 0 -.39542 64.941 347.57)">
<path d="m32.667 489.38 0.557-8.505s-1.219-6.896-1.493-8.371c-0.295-1.592 0.465-2.622 1.506-2.984 0.672-0.226 2.019-0.147 2.643 1.294 0.599 1.376 2.927 9.337 2.927 9.337l0.151 6.73m-1.512 20.676c-4.281-3.735-5.594-12.165-5.749-14.75-0.071-1.179-0.209-3.19 2.165-4.187 2.945-1.235 11.108-3.506 11.108-3.506l1.313-8.164c0.144-0.884 0.846-2.203 2.907-1.984 1.648 0.174 2.311 1.588 2.2 3.117-0.189 2.605-0.865 9.169-1.007 10.158-0.075 0.519-0.076 1.44-0.893 1.882-2.094 1.146-8.708 3.681-8.708 3.681l2.716 8.482 6.877-0.523c0.574-0.029 1.041-0.017 1.605 0.145l6.616 2.348c1.594 0.459 2.416 1.503 2.097 2.785-0.321 1.31-1.572 1.964-3.163 1.506l-5.945-1.439-8.779 1.459c-1.498 0.303-3.87 0.289-5.36-1.01zm9.037 3.983c2.929 0.015 5.299 2.406 5.284 5.337-0.014 2.935-2.406 5.302-5.337 5.287-2.934-0.012-5.303-2.404-5.289-5.337 0.013-2.935 2.403-5.302 5.342-5.287zm-11.003-6.29c1.315 2.086 1.142 3.745-1.635 4.671-2.108 0.699-3.647 0.037-4.885-1.489-2.208-2.713-3.825-6.288-4.727-8.998-0.634-1.915 0.272-3.627 2.842-4.887 2.214-1.086 4.49-0.598 5.005 1.245" fill="none" stroke="#011520" stroke-linejoin="round" stroke-miterlimit="10" stroke-width="2"/>
</g>
<g transform="matrix(.39542 0 0 -.39542 64.941 347.57)">
<path d="m58.596 504.26 3.791-20.566m-4.918 26.563 0.316-1.644m14.05-43.508-1.661 5.166m-25.933-9.569 9.814 6.629" fill="none" stroke="#011520" stroke-linecap="round" stroke-linejoin="round" stroke-miterlimit="10" stroke-width="2"/>
</g>
</g>
</svg>
