<svg width="18" height="19" viewBox="0 0 18 19" fill="none" xmlns="http://www.w3.org/2000/svg">
<path d="M9 0.25C13.957 0.25 18 4.29297 18 9.25C18 14.2422 13.957 18.25 9 18.25C4.00781 18.25 0 14.2422 0 9.25C0 4.29297 4.00781 0.25 9 0.25ZM9 17.125C13.3242 17.125 16.875 13.6094 16.875 9.25C16.875 4.92578 13.3242 1.375 9 1.375C4.64062 1.375 1.125 4.92578 1.125 9.25C1.125 13.6094 4.64062 17.125 9 17.125ZM8.4375 12.3438C8.89453 12.3438 9.28125 12.7305 9.28125 13.1875C9.28125 13.6797 8.89453 14.0312 8.4375 14.0312C7.94531 14.0312 7.59375 13.6797 7.59375 13.1875C7.59375 12.7305 7.94531 12.3438 8.4375 12.3438ZM10.0195 4.75C11.3203 4.75 12.375 5.80469 12.375 7.10547C12.375 7.94922 11.8828 8.72266 11.1445 9.14453L9.03516 10.1992C9 10.2344 9 10.2695 9 10.3047V10.9375C9 11.2539 8.71875 11.5 8.4375 11.5C8.12109 11.5 7.875 11.2539 7.875 10.9375V10.3047C7.875 9.84766 8.12109 9.42578 8.50781 9.21484L10.6172 8.16016C11.0039 7.94922 11.25 7.52734 11.25 7.10547C11.25 6.4375 10.6875 5.875 10.0195 5.875H7.94531C7.27734 5.875 6.75 6.4375 6.75 7.10547V7.42188C6.75 7.73828 6.46875 7.98438 6.1875 7.98438C5.87109 7.98438 5.625 7.73828 5.625 7.42188V7.10547C5.625 5.80469 6.64453 4.75 7.94531 4.75H10.0195Z" fill="#111827"/>
</svg>
