<svg width="21" height="21" viewBox="0 0 21 21" fill="none" xmlns="http://www.w3.org/2000/svg">
<path d="M19.8867 18.8984C20.2773 19.2891 20.2773 19.875 19.8867 20.2266C19.7305 20.4219 19.4961 20.5 19.2617 20.5C18.9883 20.5 18.7539 20.4219 18.5586 20.2266L13.3242 14.9922C11.918 16.125 10.1602 16.75 8.28516 16.75C3.83203 16.75 0.199219 13.1172 0.199219 8.625C0.199219 4.17188 3.79297 0.5 8.28516 0.5C12.7383 0.5 16.4102 4.17188 16.4102 8.625C16.4102 10.5391 15.7852 12.2969 14.6523 13.6641L19.8867 18.8984ZM2.07422 8.625C2.07422 12.1016 4.84766 14.875 8.32422 14.875C11.7617 14.875 14.5742 12.1016 14.5742 8.625C14.5742 5.1875 11.7617 2.375 8.32422 2.375C4.84766 2.375 2.07422 5.1875 2.07422 8.625Z" fill="#18181B"/>
</svg>
