<svg width="19" height="19" viewBox="0 0 19 19" fill="none" xmlns="http://www.w3.org/2000/svg">
<path d="M11.5879 2.625C11.041 2.625 10.6504 2.23438 10.6504 1.6875C10.6504 1.17969 11.041 0.75 11.5879 0.75H17.2129C17.7207 0.75 18.1504 1.17969 18.1504 1.6875V7.3125C18.1504 7.85938 17.7207 8.25 17.2129 8.25C16.666 8.25 16.2754 7.85938 16.2754 7.3125V3.95312L8.46289 11.7266C8.11133 12.1172 7.52539 12.1172 7.17383 11.7266C6.7832 11.375 6.7832 10.7891 7.17383 10.3984L14.9473 2.625H11.5879ZM0.650391 4.1875C0.650391 3.01562 1.62695 2 2.83789 2H7.21289C7.7207 2 8.15039 2.42969 8.15039 2.9375C8.15039 3.48438 7.7207 3.875 7.21289 3.875H2.83789C2.64258 3.875 2.52539 4.03125 2.52539 4.1875V16.0625C2.52539 16.2578 2.64258 16.375 2.83789 16.375H14.7129C14.8691 16.375 15.0254 16.2578 15.0254 16.0625V11.6875C15.0254 11.1797 15.416 10.75 15.9629 10.75C16.4707 10.75 16.9004 11.1797 16.9004 11.6875V16.0625C16.9004 17.2734 15.8848 18.25 14.7129 18.25H2.83789C1.62695 18.25 0.650391 17.2734 0.650391 16.0625V4.1875Z" fill="#18181B"/>
</svg>
