<svg width="16" height="19" viewBox="0 0 16 19" fill="none" xmlns="http://www.w3.org/2000/svg">
<path d="M5.1875 14.3125C5.1875 14.6289 4.90625 14.875 4.625 14.875C4.30859 14.875 4.0625 14.6289 4.0625 14.3125V6.4375C4.0625 6.15625 4.30859 5.875 4.625 5.875C4.90625 5.875 5.1875 6.15625 5.1875 6.4375V14.3125ZM8.5625 14.3125C8.5625 14.6289 8.28125 14.875 8 14.875C7.68359 14.875 7.4375 14.6289 7.4375 14.3125V6.4375C7.4375 6.15625 7.68359 5.875 8 5.875C8.28125 5.875 8.5625 6.15625 8.5625 6.4375V14.3125ZM11.9375 14.3125C11.9375 14.6289 11.6562 14.875 11.375 14.875C11.0586 14.875 10.8125 14.6289 10.8125 14.3125V6.4375C10.8125 6.15625 11.0586 5.875 11.375 5.875C11.6562 5.875 11.9375 6.15625 11.9375 6.4375V14.3125ZM11.0234 1.05859L11.9375 2.5H15.3125C15.5938 2.5 15.875 2.78125 15.875 3.0625C15.875 3.37891 15.5938 3.625 15.3125 3.625H14.75V15.4375C14.75 17.0195 13.4844 18.25 11.9375 18.25H4.0625C2.48047 18.25 1.25 17.0195 1.25 15.4375V3.625H0.6875C0.371094 3.625 0.125 3.37891 0.125 3.0625C0.125 2.78125 0.371094 2.5 0.6875 2.5H4.02734L4.94141 1.05859C5.22266 0.566406 5.78516 0.25 6.34766 0.25H9.61719C10.1797 0.25 10.7422 0.566406 11.0234 1.05859ZM5.32812 2.5H10.6367L10.0742 1.65625C9.96875 1.48047 9.79297 1.375 9.61719 1.375H6.34766C6.17188 1.375 5.99609 1.48047 5.89062 1.65625L5.32812 2.5ZM2.375 15.4375C2.375 16.3867 3.11328 17.125 4.0625 17.125H11.9375C12.8516 17.125 13.625 16.3867 13.625 15.4375V3.625H2.375V15.4375Z" fill="#18181B"/>
</svg>
