<svg width="16" height="19" viewBox="0 0 16 19" fill="none" xmlns="http://www.w3.org/2000/svg">
<path d="M14.1621 16.375C14.6699 16.375 15.0996 16.8047 15.0996 17.3125C15.0996 17.8594 14.6699 18.25 14.1621 18.25H1.03711C0.490234 18.25 0.0996094 17.8594 0.0996094 17.3125C0.0996094 16.7656 0.490234 16.375 1.03711 16.375H14.1621ZM3.26367 7.66406C2.91211 8.01562 2.32617 8.05469 1.93555 7.70312C1.54492 7.35156 1.54492 6.72656 1.89648 6.375L6.89648 1.0625C7.24805 0.671875 7.91211 0.671875 8.26367 1.0625L13.2637 6.375C13.6152 6.72656 13.6152 7.35156 13.2246 7.70312C13.0293 7.85938 12.7949 7.9375 12.5996 7.9375C12.3262 7.9375 12.0918 7.85938 11.8965 7.66406L8.53711 4.07031V13.5625C8.53711 14.1094 8.10742 14.5 7.59961 14.5C7.05273 14.5 6.66211 14.1094 6.66211 13.5625V4.07031L3.26367 7.66406Z" fill="#18181B"/>
</svg>
