<svg width="66" height="37" viewBox="0 0 66 37" fill="none" xmlns="http://www.w3.org/2000/svg">
<path d="M1.65148 4.09H1.58148V10H0.821484V3.02H2.01148L4.39148 8.87H4.46148V3.02H5.22148V10H4.03148L1.65148 4.09ZM9.10758 10.12C8.73424 10.12 8.39758 10.0567 8.09758 9.93C7.80424 9.80333 7.55091 9.62333 7.33758 9.39C7.13091 9.15 6.97091 8.86667 6.85758 8.54C6.74424 8.20667 6.68758 7.83667 6.68758 7.43C6.68758 7.01667 6.74424 6.64333 6.85758 6.31C6.97758 5.97667 7.14091 5.69333 7.34758 5.46C7.55424 5.22 7.80091 5.03667 8.08758 4.91C8.38091 4.78333 8.70424 4.72 9.05758 4.72C9.40424 4.72 9.71758 4.78333 9.99758 4.91C10.2842 5.03667 10.5276 5.21333 10.7276 5.44C10.9276 5.66 11.0809 5.92333 11.1876 6.23C11.2942 6.53667 11.3476 6.87333 11.3476 7.24V7.62H7.52758V7.86C7.52758 8.08667 7.56424 8.29667 7.63758 8.49C7.71091 8.68333 7.81424 8.85 7.94758 8.99C8.08758 9.13 8.25424 9.24 8.44758 9.32C8.64758 9.39333 8.86758 9.43 9.10758 9.43C9.45425 9.43 9.75425 9.35 10.0076 9.19C10.2609 9.03 10.4542 8.81 10.5876 8.53L11.1776 8.93C11.0242 9.27667 10.7676 9.56333 10.4076 9.79C10.0542 10.01 9.62091 10.12 9.10758 10.12ZM9.05758 5.38C8.83758 5.38 8.63425 5.42 8.44758 5.5C8.26091 5.58 8.09758 5.69 7.95758 5.83C7.82424 5.97 7.71758 6.13667 7.63758 6.33C7.56424 6.51667 7.52758 6.72333 7.52758 6.95V7.02H10.4876V6.91C10.4876 6.68333 10.4509 6.47667 10.3776 6.29C10.3109 6.10333 10.2142 5.94333 10.0876 5.81C9.96758 5.67 9.81758 5.56333 9.63758 5.49C9.46425 5.41667 9.27091 5.38 9.05758 5.38ZM12.3137 4.84H13.0237L13.6137 9.3H13.7037L14.5837 4.84H15.4637L16.3437 9.3H16.4337L17.0237 4.84H17.7137L16.9237 10H15.8837L15.0637 5.68H14.9837L14.1437 10H13.1037L12.3137 4.84ZM24.8859 3.02H27.2559C27.8559 3.02 28.3259 3.18333 28.6659 3.51C29.0059 3.83667 29.1759 4.27333 29.1759 4.82C29.1759 5.24 29.0725 5.57 28.8659 5.81C28.6659 6.05 28.4059 6.22 28.0859 6.32V6.35C28.4792 6.44333 28.8025 6.62 29.0559 6.88C29.3092 7.13333 29.4359 7.50333 29.4359 7.99C29.4359 8.27 29.3892 8.53333 29.2959 8.78C29.2025 9.02667 29.0692 9.24 28.8959 9.42C28.7292 9.6 28.5292 9.74333 28.2959 9.85C28.0692 9.95 27.8225 10 27.5559 10H24.8859V3.02ZM27.3059 9.27C27.6925 9.27 27.9959 9.18333 28.2159 9.01C28.4359 8.83667 28.5459 8.57 28.5459 8.21V7.8C28.5459 7.44667 28.4359 7.18333 28.2159 7.01C27.9959 6.83 27.6925 6.74 27.3059 6.74H25.7259V9.27H27.3059ZM27.1659 6.05C27.5192 6.05 27.7959 5.97333 27.9959 5.82C28.1959 5.66 28.2959 5.42 28.2959 5.1V4.71C28.2959 4.39 28.1959 4.15 27.9959 3.99C27.7959 3.83 27.5192 3.75 27.1659 3.75H25.7259V6.05H27.1659ZM30.772 9.32H32.282V5.52H30.772V4.84H33.082V6.14H33.132C33.2386 5.73333 33.4386 5.41667 33.732 5.19C34.032 4.95667 34.412 4.84 34.872 4.84H35.592V5.64H34.622C34.162 5.64 33.7886 5.77333 33.502 6.04C33.222 6.30667 33.082 6.65667 33.082 7.09V9.32H35.082V10H30.772V9.32ZM38.998 10.12C38.638 10.12 38.3114 10.0567 38.018 9.93C37.7314 9.80333 37.4847 9.62333 37.278 9.39C37.078 9.15 36.9247 8.86667 36.818 8.54C36.7114 8.20667 36.658 7.83333 36.658 7.42C36.658 7.01333 36.7114 6.64333 36.818 6.31C36.9247 5.97667 37.078 5.69333 37.278 5.46C37.4847 5.22 37.7314 5.03667 38.018 4.91C38.3114 4.78333 38.638 4.72 38.998 4.72C39.358 4.72 39.6814 4.78333 39.968 4.91C40.2614 5.03667 40.508 5.22 40.708 5.46C40.9147 5.69333 41.0714 5.97667 41.178 6.31C41.2847 6.64333 41.338 7.01333 41.338 7.42C41.338 7.83333 41.2847 8.20667 41.178 8.54C41.0714 8.86667 40.9147 9.15 40.708 9.39C40.508 9.62333 40.2614 9.80333 39.968 9.93C39.6814 10.0567 39.358 10.12 38.998 10.12ZM38.998 9.43C39.4447 9.43 39.8047 9.29667 40.078 9.03C40.3514 8.76333 40.488 8.35 40.488 7.79V7.05C40.488 6.49 40.3514 6.07667 40.078 5.81C39.8047 5.54333 39.4447 5.41 38.998 5.41C38.5514 5.41 38.1914 5.54333 37.918 5.81C37.6447 6.07667 37.508 6.49 37.508 7.05V7.79C37.508 8.35 37.6447 8.76333 37.918 9.03C38.1914 9.29667 38.5514 9.43 38.998 9.43ZM42.2941 4.84H43.0041L43.5941 9.3H43.6841L44.5641 4.84H45.4441L46.3241 9.3H46.4141L47.0041 4.84H47.6941L46.9041 10H45.8641L45.0441 5.68H44.9641L44.1241 10H43.0841L42.2941 4.84ZM51.0502 10.12C50.5102 10.12 50.0436 10.03 49.6502 9.85C49.2636 9.66333 48.9336 9.41667 48.6602 9.11L49.2002 8.64C49.4469 8.9 49.7169 9.1 50.0102 9.24C50.3036 9.38 50.6569 9.45 51.0702 9.45C51.4702 9.45 51.7969 9.38 52.0502 9.24C52.3102 9.09333 52.4402 8.86667 52.4402 8.56C52.4402 8.42667 52.4136 8.31667 52.3602 8.23C52.3136 8.13667 52.2469 8.06333 52.1602 8.01C52.0736 7.95667 51.9769 7.91667 51.8702 7.89C51.7636 7.85667 51.6502 7.83 51.5302 7.81L50.7202 7.69C50.5402 7.66333 50.3436 7.62667 50.1302 7.58C49.9236 7.53333 49.7336 7.46 49.5602 7.36C49.3869 7.25333 49.2402 7.11333 49.1202 6.94C49.0069 6.76667 48.9502 6.54 48.9502 6.26C48.9502 6 49.0002 5.77667 49.1002 5.59C49.2069 5.39667 49.3536 5.23667 49.5402 5.11C49.7269 4.97667 49.9469 4.88 50.2002 4.82C50.4536 4.75333 50.7302 4.72 51.0302 4.72C51.4969 4.72 51.9002 4.79333 52.2402 4.94C52.5869 5.08667 52.8836 5.29 53.1302 5.55L52.6102 6.04C52.5502 5.96667 52.4736 5.89333 52.3802 5.82C52.2936 5.74 52.1836 5.67 52.0502 5.61C51.9236 5.54333 51.7736 5.49 51.6002 5.45C51.4269 5.41 51.2269 5.39 51.0002 5.39C50.5936 5.39 50.2802 5.46 50.0602 5.6C49.8469 5.74 49.7402 5.94333 49.7402 6.21C49.7402 6.34333 49.7636 6.45667 49.8102 6.55C49.8636 6.63667 49.9336 6.70667 50.0202 6.76C50.1069 6.81333 50.2036 6.85667 50.3102 6.89C50.4236 6.91667 50.5369 6.94 50.6502 6.96L51.4602 7.08C51.6469 7.10667 51.8436 7.14333 52.0502 7.19C52.2569 7.23667 52.4469 7.31333 52.6202 7.42C52.7936 7.52 52.9369 7.65667 53.0502 7.83C53.1702 8.00333 53.2302 8.23 53.2302 8.51C53.2302 9.02333 53.0302 9.42 52.6302 9.7C52.2369 9.98 51.7102 10.12 51.0502 10.12ZM57.0763 10.12C56.703 10.12 56.3663 10.0567 56.0663 9.93C55.773 9.80333 55.5197 9.62333 55.3063 9.39C55.0997 9.15 54.9397 8.86667 54.8263 8.54C54.713 8.20667 54.6563 7.83667 54.6563 7.43C54.6563 7.01667 54.713 6.64333 54.8263 6.31C54.9463 5.97667 55.1097 5.69333 55.3163 5.46C55.523 5.22 55.7697 5.03667 56.0563 4.91C56.3497 4.78333 56.673 4.72 57.0263 4.72C57.373 4.72 57.6863 4.78333 57.9663 4.91C58.253 5.03667 58.4963 5.21333 58.6963 5.44C58.8963 5.66 59.0497 5.92333 59.1563 6.23C59.263 6.53667 59.3163 6.87333 59.3163 7.24V7.62H55.4963V7.86C55.4963 8.08667 55.533 8.29667 55.6063 8.49C55.6797 8.68333 55.783 8.85 55.9163 8.99C56.0563 9.13 56.223 9.24 56.4163 9.32C56.6163 9.39333 56.8363 9.43 57.0763 9.43C57.423 9.43 57.723 9.35 57.9763 9.19C58.2297 9.03 58.423 8.81 58.5563 8.53L59.1463 8.93C58.993 9.27667 58.7363 9.56333 58.3763 9.79C58.023 10.01 57.5897 10.12 57.0763 10.12ZM57.0263 5.38C56.8063 5.38 56.603 5.42 56.4163 5.5C56.2297 5.58 56.0663 5.69 55.9263 5.83C55.793 5.97 55.6863 6.13667 55.6063 6.33C55.533 6.51667 55.4963 6.72333 55.4963 6.95V7.02H58.4563V6.91C58.4563 6.68333 58.4197 6.47667 58.3463 6.29C58.2797 6.10333 58.183 5.94333 58.0563 5.81C57.9363 5.67 57.7863 5.56333 57.6063 5.49C57.433 5.41667 57.2397 5.38 57.0263 5.38ZM60.7524 9.32H62.2624V5.52H60.7524V4.84H63.0624V6.14H63.1124C63.2191 5.73333 63.4191 5.41667 63.7124 5.19C64.0124 4.95667 64.3924 4.84 64.8524 4.84H65.5724V5.64H64.6024C64.1424 5.64 63.7691 5.77333 63.4824 6.04C63.2024 6.30667 63.0624 6.65667 63.0624 7.09V9.32H65.0624V10H60.7524V9.32Z" fill="#1F1C20"/>
<g filter="url(#filter0_b_711_17785)">
<rect x="25" y="19" width="16" height="18" rx="5" fill="url(#paint0_linear_711_17785)"/>
<path d="M30.83 24.52H33.24C33.8733 24.52 34.3633 24.6833 34.71 25.01C35.0633 25.3367 35.24 25.7833 35.24 26.35C35.24 26.7567 35.14 27.08 34.94 27.32C34.74 27.56 34.47 27.73 34.13 27.83V27.88C34.5367 27.9733 34.8633 28.1533 35.11 28.42C35.3567 28.68 35.48 29.05 35.48 29.53C35.48 29.8167 35.4333 30.08 35.34 30.32C35.2467 30.56 35.1133 30.77 34.94 30.95C34.7667 31.1233 34.5567 31.26 34.31 31.36C34.07 31.4533 33.8033 31.5 33.51 31.5H30.83V24.52ZM33.17 30.64C33.5433 30.64 33.83 30.5633 34.03 30.41C34.23 30.2567 34.33 30.01 34.33 29.67V29.31C34.33 28.97 34.23 28.7233 34.03 28.57C33.83 28.4167 33.5433 28.34 33.17 28.34H31.93V30.64H33.17ZM33.01 27.52C33.3633 27.52 33.63 27.4533 33.81 27.32C33.9967 27.18 34.09 26.95 34.09 26.63V26.27C34.09 25.95 33.9967 25.7233 33.81 25.59C33.63 25.45 33.3633 25.38 33.01 25.38H31.93V27.52H33.01Z" fill="white"/>
<rect x="25.5" y="19.5" width="15" height="17" rx="4.5" stroke="url(#paint1_linear_711_17785)"/>
</g>
<defs>
<filter id="filter0_b_711_17785" x="-15" y="-21" width="96" height="98" filterUnits="userSpaceOnUse" color-interpolation-filters="sRGB">
<feFlood flood-opacity="0" result="BackgroundImageFix"/>
<feGaussianBlur in="BackgroundImageFix" stdDeviation="20"/>
<feComposite in2="SourceAlpha" operator="in" result="effect1_backgroundBlur_711_17785"/>
<feBlend mode="normal" in="SourceGraphic" in2="effect1_backgroundBlur_711_17785" result="shape"/>
</filter>
<linearGradient id="paint0_linear_711_17785" x1="25" y1="19" x2="44.9419" y2="29.5466" gradientUnits="userSpaceOnUse">
<stop stop-color="#464646"/>
<stop offset="1" stop-color="#9C9FA9"/>
</linearGradient>
<linearGradient id="paint1_linear_711_17785" x1="25" y1="19" x2="44.9482" y2="29.4969" gradientUnits="userSpaceOnUse">
<stop stop-color="#9C9FA9"/>
<stop offset="1" stop-color="#464646"/>
</linearGradient>
</defs>
</svg>
