<svg xmlns="http://www.w3.org/2000/svg" width="54" height="28" viewBox="0 0 54 28" fill="none">
<path d="M12.2417 10.12C11.3884 10.12 10.7517 9.81 10.3317 9.19C9.91839 8.57 9.71172 7.67667 9.71172 6.51C9.71172 5.34333 9.91839 4.45 10.3317 3.83C10.7517 3.21 11.3884 2.9 12.2417 2.9C12.5617 2.9 12.8384 2.94333 13.0717 3.03C13.3051 3.11667 13.5051 3.23333 13.6717 3.38C13.8384 3.52667 13.9784 3.69333 14.0917 3.88C14.2051 4.06 14.3051 4.24333 14.3917 4.43L13.6717 4.76C13.6117 4.60667 13.5417 4.46333 13.4617 4.33C13.3817 4.19 13.2851 4.07 13.1717 3.97C13.0651 3.86333 12.9351 3.78 12.7817 3.72C12.6351 3.66 12.4551 3.63 12.2417 3.63C11.6884 3.63 11.2751 3.84 11.0017 4.26C10.7351 4.68 10.6017 5.24 10.6017 5.94V7.08C10.6017 7.78 10.7351 8.34 11.0017 8.76C11.2751 9.18 11.6884 9.39 12.2417 9.39C12.4551 9.39 12.6351 9.36 12.7817 9.3C12.9351 9.24 13.0651 9.16 13.1717 9.06C13.2851 8.95333 13.3817 8.83333 13.4617 8.7C13.5417 8.56 13.6117 8.41333 13.6717 8.26L14.3917 8.59C14.3051 8.78333 14.2051 8.97 14.0917 9.15C13.9784 9.33 13.8384 9.49333 13.6717 9.64C13.5051 9.78667 13.3051 9.90333 13.0717 9.99C12.8384 10.0767 12.5617 10.12 12.2417 10.12ZM15.9878 2.6H16.7878V5.68H16.8278C16.8811 5.55333 16.9478 5.43333 17.0278 5.32C17.1078 5.2 17.2045 5.09667 17.3178 5.01C17.4378 4.92333 17.5778 4.85333 17.7378 4.8C17.8978 4.74667 18.0845 4.72 18.2978 4.72C18.8378 4.72 19.2711 4.89333 19.5978 5.24C19.9245 5.58 20.0878 6.06333 20.0878 6.69V10H19.2878V6.83C19.2878 6.35667 19.1845 6.00667 18.9778 5.78C18.7711 5.54667 18.4678 5.43 18.0678 5.43C17.9078 5.43 17.7511 5.45 17.5978 5.49C17.4445 5.53 17.3078 5.59 17.1878 5.67C17.0678 5.75 16.9711 5.85333 16.8978 5.98C16.8245 6.10667 16.7878 6.25333 16.7878 6.42V10H15.9878V2.6ZM24.0039 10.12C23.6439 10.12 23.3172 10.0567 23.0239 9.93C22.7372 9.80333 22.4906 9.62333 22.2839 9.39C22.0839 9.15 21.9306 8.86667 21.8239 8.54C21.7172 8.20667 21.6639 7.83333 21.6639 7.42C21.6639 7.01333 21.7172 6.64333 21.8239 6.31C21.9306 5.97667 22.0839 5.69333 22.2839 5.46C22.4906 5.22 22.7372 5.03667 23.0239 4.91C23.3172 4.78333 23.6439 4.72 24.0039 4.72C24.3639 4.72 24.6872 4.78333 24.9739 4.91C25.2672 5.03667 25.5139 5.22 25.7139 5.46C25.9206 5.69333 26.0772 5.97667 26.1839 6.31C26.2906 6.64333 26.3439 7.01333 26.3439 7.42C26.3439 7.83333 26.2906 8.20667 26.1839 8.54C26.0772 8.86667 25.9206 9.15 25.7139 9.39C25.5139 9.62333 25.2672 9.80333 24.9739 9.93C24.6872 10.0567 24.3639 10.12 24.0039 10.12ZM24.0039 9.43C24.4506 9.43 24.8106 9.29667 25.0839 9.03C25.3572 8.76333 25.4939 8.35 25.4939 7.79V7.05C25.4939 6.49 25.3572 6.07667 25.0839 5.81C24.8106 5.54333 24.4506 5.41 24.0039 5.41C23.5572 5.41 23.1972 5.54333 22.9239 5.81C22.6506 6.07667 22.5139 6.49 22.5139 7.05V7.79C22.5139 8.35 22.6506 8.76333 22.9239 9.03C23.1972 9.29667 23.5572 9.43 24.0039 9.43ZM30 10.12C29.64 10.12 29.3133 10.0567 29.02 9.93C28.7333 9.80333 28.4867 9.62333 28.28 9.39C28.08 9.15 27.9267 8.86667 27.82 8.54C27.7133 8.20667 27.66 7.83333 27.66 7.42C27.66 7.01333 27.7133 6.64333 27.82 6.31C27.9267 5.97667 28.08 5.69333 28.28 5.46C28.4867 5.22 28.7333 5.03667 29.02 4.91C29.3133 4.78333 29.64 4.72 30 4.72C30.36 4.72 30.6833 4.78333 30.97 4.91C31.2633 5.03667 31.51 5.22 31.71 5.46C31.9167 5.69333 32.0733 5.97667 32.18 6.31C32.2867 6.64333 32.34 7.01333 32.34 7.42C32.34 7.83333 32.2867 8.20667 32.18 8.54C32.0733 8.86667 31.9167 9.15 31.71 9.39C31.51 9.62333 31.2633 9.80333 30.97 9.93C30.6833 10.0567 30.36 10.12 30 10.12ZM30 9.43C30.4467 9.43 30.8067 9.29667 31.08 9.03C31.3533 8.76333 31.49 8.35 31.49 7.79V7.05C31.49 6.49 31.3533 6.07667 31.08 5.81C30.8067 5.54333 30.4467 5.41 30 5.41C29.5533 5.41 29.1933 5.54333 28.92 5.81C28.6467 6.07667 28.51 6.49 28.51 7.05V7.79C28.51 8.35 28.6467 8.76333 28.92 9.03C29.1933 9.29667 29.5533 9.43 30 9.43ZM36.0561 10.12C35.5161 10.12 35.0494 10.03 34.6561 9.85C34.2694 9.66333 33.9394 9.41667 33.6661 9.11L34.2061 8.64C34.4528 8.9 34.7228 9.1 35.0161 9.24C35.3094 9.38 35.6628 9.45 36.0761 9.45C36.4761 9.45 36.8028 9.38 37.0561 9.24C37.3161 9.09333 37.4461 8.86667 37.4461 8.56C37.4461 8.42667 37.4194 8.31667 37.3661 8.23C37.3194 8.13667 37.2528 8.06333 37.1661 8.01C37.0794 7.95667 36.9828 7.91667 36.8761 7.89C36.7694 7.85667 36.6561 7.83 36.5361 7.81L35.7261 7.69C35.5461 7.66333 35.3494 7.62667 35.1361 7.58C34.9294 7.53333 34.7394 7.46 34.5661 7.36C34.3928 7.25333 34.2461 7.11333 34.1261 6.94C34.0128 6.76667 33.9561 6.54 33.9561 6.26C33.9561 6 34.0061 5.77667 34.1061 5.59C34.2128 5.39667 34.3594 5.23667 34.5461 5.11C34.7328 4.97667 34.9528 4.88 35.2061 4.82C35.4594 4.75333 35.7361 4.72 36.0361 4.72C36.5028 4.72 36.9061 4.79333 37.2461 4.94C37.5928 5.08667 37.8894 5.29 38.1361 5.55L37.6161 6.04C37.5561 5.96667 37.4794 5.89333 37.3861 5.82C37.2994 5.74 37.1894 5.67 37.0561 5.61C36.9294 5.54333 36.7794 5.49 36.6061 5.45C36.4328 5.41 36.2328 5.39 36.0061 5.39C35.5994 5.39 35.2861 5.46 35.0661 5.6C34.8528 5.74 34.7461 5.94333 34.7461 6.21C34.7461 6.34333 34.7694 6.45667 34.8161 6.55C34.8694 6.63667 34.9394 6.70667 35.0261 6.76C35.1128 6.81333 35.2094 6.85667 35.3161 6.89C35.4294 6.91667 35.5428 6.94 35.6561 6.96L36.4661 7.08C36.6528 7.10667 36.8494 7.14333 37.0561 7.19C37.2628 7.23667 37.4528 7.31333 37.6261 7.42C37.7994 7.52 37.9428 7.65667 38.0561 7.83C38.1761 8.00333 38.2361 8.23 38.2361 8.51C38.2361 9.02333 38.0361 9.42 37.6361 9.7C37.2428 9.98 36.7161 10.12 36.0561 10.12ZM42.0822 10.12C41.7089 10.12 41.3722 10.0567 41.0722 9.93C40.7789 9.80333 40.5255 9.62333 40.3122 9.39C40.1055 9.15 39.9455 8.86667 39.8322 8.54C39.7189 8.20667 39.6622 7.83667 39.6622 7.43C39.6622 7.01667 39.7189 6.64333 39.8322 6.31C39.9522 5.97667 40.1155 5.69333 40.3222 5.46C40.5289 5.22 40.7755 5.03667 41.0622 4.91C41.3555 4.78333 41.6789 4.72 42.0322 4.72C42.3789 4.72 42.6922 4.78333 42.9722 4.91C43.2589 5.03667 43.5022 5.21333 43.7022 5.44C43.9022 5.66 44.0555 5.92333 44.1622 6.23C44.2689 6.53667 44.3222 6.87333 44.3222 7.24V7.62H40.5022V7.86C40.5022 8.08667 40.5389 8.29667 40.6122 8.49C40.6855 8.68333 40.7889 8.85 40.9222 8.99C41.0622 9.13 41.2289 9.24 41.4222 9.32C41.6222 9.39333 41.8422 9.43 42.0822 9.43C42.4289 9.43 42.7289 9.35 42.9822 9.19C43.2355 9.03 43.4289 8.81 43.5622 8.53L44.1522 8.93C43.9989 9.27667 43.7422 9.56333 43.3822 9.79C43.0289 10.01 42.5955 10.12 42.0822 10.12ZM42.0322 5.38C41.8122 5.38 41.6089 5.42 41.4222 5.5C41.2355 5.58 41.0722 5.69 40.9322 5.83C40.7989 5.97 40.6922 6.13667 40.6122 6.33C40.5389 6.51667 40.5022 6.72333 40.5022 6.95V7.02H43.4622V6.91C43.4622 6.68333 43.4255 6.47667 43.3522 6.29C43.2855 6.10333 43.1889 5.94333 43.0622 5.81C42.9422 5.67 42.7922 5.56333 42.6122 5.49C42.4389 5.41667 42.2455 5.38 42.0322 5.38Z" fill="#1F1C20"/>
<path d="M4.96758 25C4.65424 25 4.43091 24.92 4.29758 24.76C4.16425 24.6 4.08091 24.4 4.04758 24.16H3.99758C3.88424 24.46 3.70091 24.6967 3.44758 24.87C3.20091 25.0367 2.86758 25.12 2.44758 25.12C1.90758 25.12 1.47758 24.98 1.15758 24.7C0.837578 24.42 0.677578 24.0367 0.677578 23.55C0.677578 23.07 0.850911 22.7 1.19758 22.44C1.55091 22.18 2.11758 22.05 2.89758 22.05H3.99758V21.54C3.99758 21.16 3.89091 20.8767 3.67758 20.69C3.46425 20.4967 3.16091 20.4 2.76758 20.4C2.42091 20.4 2.13758 20.47 1.91758 20.61C1.69758 20.7433 1.52091 20.9267 1.38758 21.16L0.847578 20.76C0.914245 20.6267 1.00424 20.4967 1.11758 20.37C1.23091 20.2433 1.37091 20.1333 1.53758 20.04C1.70424 19.94 1.89424 19.8633 2.10758 19.81C2.32091 19.75 2.55758 19.72 2.81758 19.72C3.42424 19.72 3.90425 19.8733 4.25758 20.18C4.61758 20.4867 4.79758 20.9133 4.79758 21.46V24.3H5.51758V25H4.96758ZM2.58758 24.45C2.79424 24.45 2.98091 24.4267 3.14758 24.38C3.32091 24.3267 3.47091 24.26 3.59758 24.18C3.72424 24.0933 3.82091 23.9933 3.88758 23.88C3.96091 23.76 3.99758 23.6333 3.99758 23.5V22.65H2.89758C2.41758 22.65 2.06758 22.7167 1.84758 22.85C1.62758 22.9833 1.51758 23.1767 1.51758 23.43V23.64C1.51758 23.9067 1.61091 24.11 1.79758 24.25C1.99091 24.3833 2.25424 24.45 2.58758 24.45ZM6.99367 25V19.84H7.79367V20.68H7.83367C7.88701 20.5533 7.95367 20.4333 8.03367 20.32C8.11367 20.2 8.21034 20.0967 8.32367 20.01C8.44367 19.9233 8.58367 19.8533 8.74367 19.8C8.90367 19.7467 9.09034 19.72 9.30367 19.72C9.84367 19.72 10.277 19.8933 10.6037 20.24C10.9303 20.58 11.0937 21.0633 11.0937 21.69V25H10.2937V21.83C10.2937 21.3567 10.1903 21.0067 9.98367 20.78C9.77701 20.5467 9.47367 20.43 9.07367 20.43C8.91367 20.43 8.75701 20.45 8.60367 20.49C8.45034 20.53 8.31367 20.59 8.19367 20.67C8.07367 20.75 7.97701 20.8533 7.90367 20.98C7.83034 21.1067 7.79367 21.2533 7.79367 21.42V25H6.99367ZM22.9559 25C22.6425 25 22.4192 24.92 22.2859 24.76C22.1525 24.6 22.0692 24.4 22.0359 24.16H21.9859C21.8725 24.46 21.6892 24.6967 21.4359 24.87C21.1892 25.0367 20.8559 25.12 20.4359 25.12C19.8959 25.12 19.4659 24.98 19.1459 24.7C18.8259 24.42 18.6659 24.0367 18.6659 23.55C18.6659 23.07 18.8392 22.7 19.1859 22.44C19.5392 22.18 20.1059 22.05 20.8859 22.05H21.9859V21.54C21.9859 21.16 21.8792 20.8767 21.6659 20.69C21.4525 20.4967 21.1492 20.4 20.7559 20.4C20.4092 20.4 20.1259 20.47 19.9059 20.61C19.6859 20.7433 19.5092 20.9267 19.3759 21.16L18.8359 20.76C18.9025 20.6267 18.9925 20.4967 19.1059 20.37C19.2192 20.2433 19.3592 20.1333 19.5259 20.04C19.6925 19.94 19.8825 19.8633 20.0959 19.81C20.3092 19.75 20.5459 19.72 20.8059 19.72C21.4125 19.72 21.8925 19.8733 22.2459 20.18C22.6059 20.4867 22.7859 20.9133 22.7859 21.46V24.3H23.5059V25H22.9559ZM20.5759 24.45C20.7825 24.45 20.9692 24.4267 21.1359 24.38C21.3092 24.3267 21.4592 24.26 21.5859 24.18C21.7125 24.0933 21.8092 23.9933 21.8759 23.88C21.9492 23.76 21.9859 23.6333 21.9859 23.5V22.65H20.8859C20.4059 22.65 20.0559 22.7167 19.8359 22.85C19.6159 22.9833 19.5059 23.1767 19.5059 23.43V23.64C19.5059 23.9067 19.5992 24.11 19.7859 24.25C19.9792 24.3833 20.2425 24.45 20.5759 24.45ZM27.182 25.12C26.8086 25.12 26.4753 25.0567 26.182 24.93C25.8953 24.7967 25.652 24.6133 25.452 24.38C25.252 24.1467 25.0986 23.8633 24.992 23.53C24.892 23.1967 24.842 22.8267 24.842 22.42C24.842 22.0133 24.8953 21.6433 25.002 21.31C25.1086 20.9767 25.262 20.6933 25.462 20.46C25.662 20.22 25.9053 20.0367 26.192 19.91C26.4786 19.7833 26.8053 19.72 27.172 19.72C27.672 19.72 28.0786 19.83 28.392 20.05C28.7053 20.27 28.9353 20.5567 29.082 20.91L28.442 21.25C28.3486 20.9833 28.192 20.7767 27.972 20.63C27.7586 20.4833 27.492 20.41 27.172 20.41C26.9386 20.41 26.7286 20.45 26.542 20.53C26.362 20.6033 26.2086 20.71 26.082 20.85C25.9553 20.99 25.8586 21.1567 25.792 21.35C25.732 21.5433 25.702 21.7533 25.702 21.98V22.86C25.702 23.0867 25.732 23.2967 25.792 23.49C25.8586 23.6833 25.9553 23.85 26.082 23.99C26.2086 24.13 26.3653 24.24 26.552 24.32C26.7386 24.3933 26.952 24.43 27.192 24.43C27.5386 24.43 27.8253 24.35 28.052 24.19C28.2786 24.03 28.4586 23.81 28.592 23.53L29.162 23.92C29.0086 24.2667 28.7686 24.5533 28.442 24.78C28.122 25.0067 27.702 25.12 27.182 25.12ZM33.248 25C32.8547 25 32.5647 24.89 32.378 24.67C32.198 24.45 32.108 24.1667 32.108 23.82V20.52H30.388V19.84H31.668C31.8414 19.84 31.9614 19.8067 32.028 19.74C32.1014 19.6667 32.138 19.5433 32.138 19.37V18.02H32.908V19.84H35.258V20.52H32.908V24.32H35.258V25H33.248ZM39.3141 18.7C39.0808 18.7 38.9175 18.6533 38.8241 18.56C38.7308 18.46 38.6841 18.3367 38.6841 18.19V18.03C38.6841 17.8833 38.7308 17.7633 38.8241 17.67C38.9175 17.57 39.0808 17.52 39.3141 17.52C39.5475 17.52 39.7108 17.57 39.8041 17.67C39.8975 17.7633 39.9441 17.8833 39.9441 18.03V18.19C39.9441 18.3367 39.8975 18.46 39.8041 18.56C39.7108 18.6533 39.5475 18.7 39.3141 18.7ZM37.0541 24.32H38.9141V20.52H37.0541V19.84H39.7141V24.32H41.4541V25H37.0541V24.32ZM44.9902 25.12C44.6302 25.12 44.3036 25.0567 44.0102 24.93C43.7236 24.8033 43.4769 24.6233 43.2702 24.39C43.0702 24.15 42.9169 23.8667 42.8102 23.54C42.7036 23.2067 42.6502 22.8333 42.6502 22.42C42.6502 22.0133 42.7036 21.6433 42.8102 21.31C42.9169 20.9767 43.0702 20.6933 43.2702 20.46C43.4769 20.22 43.7236 20.0367 44.0102 19.91C44.3036 19.7833 44.6302 19.72 44.9902 19.72C45.3502 19.72 45.6736 19.7833 45.9602 19.91C46.2536 20.0367 46.5002 20.22 46.7002 20.46C46.9069 20.6933 47.0636 20.9767 47.1702 21.31C47.2769 21.6433 47.3302 22.0133 47.3302 22.42C47.3302 22.8333 47.2769 23.2067 47.1702 23.54C47.0636 23.8667 46.9069 24.15 46.7002 24.39C46.5002 24.6233 46.2536 24.8033 45.9602 24.93C45.6736 25.0567 45.3502 25.12 44.9902 25.12ZM44.9902 24.43C45.4369 24.43 45.7969 24.2967 46.0702 24.03C46.3436 23.7633 46.4802 23.35 46.4802 22.79V22.05C46.4802 21.49 46.3436 21.0767 46.0702 20.81C45.7969 20.5433 45.4369 20.41 44.9902 20.41C44.5436 20.41 44.1836 20.5433 43.9102 20.81C43.6369 21.0767 43.5002 21.49 43.5002 22.05V22.79C43.5002 23.35 43.6369 23.7633 43.9102 24.03C44.1836 24.2967 44.5436 24.43 44.9902 24.43ZM48.9663 25V19.84H49.7663V20.68H49.8063C49.8597 20.5533 49.9263 20.4333 50.0063 20.32C50.0863 20.2 50.183 20.0967 50.2963 20.01C50.4163 19.9233 50.5563 19.8533 50.7163 19.8C50.8763 19.7467 51.063 19.72 51.2763 19.72C51.8163 19.72 52.2497 19.8933 52.5763 20.24C52.903 20.58 53.0663 21.0633 53.0663 21.69V25H52.2663V21.83C52.2663 21.3567 52.163 21.0067 51.9563 20.78C51.7497 20.5467 51.4463 20.43 51.0463 20.43C50.8863 20.43 50.7297 20.45 50.5763 20.49C50.423 20.53 50.2863 20.59 50.1663 20.67C50.0463 20.75 49.9497 20.8533 49.8763 20.98C49.803 21.1067 49.7663 21.2533 49.7663 21.42V25H48.9663Z" fill="#1F1C20"/>
</svg>