<svg width="48" height="37" viewBox="0 0 48 37" fill="none" xmlns="http://www.w3.org/2000/svg">
<path d="M1.64563 4.09H1.57563V10H0.815625V3.02H2.00563L4.38563 8.87H4.45563V3.02H5.21563V10H4.02563L1.64563 4.09ZM9.10172 10.12C8.72839 10.12 8.39172 10.0567 8.09172 9.93C7.79839 9.80333 7.54505 9.62333 7.33172 9.39C7.12505 9.15 6.96505 8.86667 6.85172 8.54C6.73839 8.20667 6.68172 7.83667 6.68172 7.43C6.68172 7.01667 6.73839 6.64333 6.85172 6.31C6.97172 5.97667 7.13505 5.69333 7.34172 5.46C7.54839 5.22 7.79505 5.03667 8.08172 4.91C8.37505 4.78333 8.69839 4.72 9.05172 4.72C9.39839 4.72 9.71172 4.78333 9.99172 4.91C10.2784 5.03667 10.5217 5.21333 10.7217 5.44C10.9217 5.66 11.0751 5.92333 11.1817 6.23C11.2884 6.53667 11.3417 6.87333 11.3417 7.24V7.62H7.52172V7.86C7.52172 8.08667 7.55839 8.29667 7.63172 8.49C7.70505 8.68333 7.80839 8.85 7.94172 8.99C8.08172 9.13 8.24839 9.24 8.44172 9.32C8.64172 9.39333 8.86172 9.43 9.10172 9.43C9.44839 9.43 9.74839 9.35 10.0017 9.19C10.2551 9.03 10.4484 8.81 10.5817 8.53L11.1717 8.93C11.0184 9.27667 10.7617 9.56333 10.4017 9.79C10.0484 10.01 9.61505 10.12 9.10172 10.12ZM9.05172 5.38C8.83172 5.38 8.62839 5.42 8.44172 5.5C8.25505 5.58 8.09172 5.69 7.95172 5.83C7.81839 5.97 7.71172 6.13667 7.63172 6.33C7.55839 6.51667 7.52172 6.72333 7.52172 6.95V7.02H10.4817V6.91C10.4817 6.68333 10.4451 6.47667 10.3717 6.29C10.3051 6.10333 10.2084 5.94333 10.0817 5.81C9.96172 5.67 9.81172 5.56333 9.63172 5.49C9.45839 5.41667 9.26505 5.38 9.05172 5.38ZM12.3078 4.84H13.0178L13.6078 9.3H13.6978L14.5778 4.84H15.4578L16.3378 9.3H16.4278L17.0178 4.84H17.7078L16.9178 10H15.8778L15.0578 5.68H14.9778L14.1378 10H13.0978L12.3078 4.84ZM25.63 4.09H25.56V10H24.8V3.02H25.99L28.37 8.87H28.44V3.02H29.2V10H28.01L25.63 4.09ZM32.9961 10.12C32.6361 10.12 32.3094 10.0567 32.0161 9.93C31.7294 9.80333 31.4828 9.62333 31.2761 9.39C31.0761 9.15 30.9228 8.86667 30.8161 8.54C30.7094 8.20667 30.6561 7.83333 30.6561 7.42C30.6561 7.01333 30.7094 6.64333 30.8161 6.31C30.9228 5.97667 31.0761 5.69333 31.2761 5.46C31.4828 5.22 31.7294 5.03667 32.0161 4.91C32.3094 4.78333 32.6361 4.72 32.9961 4.72C33.3561 4.72 33.6794 4.78333 33.9661 4.91C34.2594 5.03667 34.5061 5.22 34.7061 5.46C34.9128 5.69333 35.0694 5.97667 35.1761 6.31C35.2828 6.64333 35.3361 7.01333 35.3361 7.42C35.3361 7.83333 35.2828 8.20667 35.1761 8.54C35.0694 8.86667 34.9128 9.15 34.7061 9.39C34.5061 9.62333 34.2594 9.80333 33.9661 9.93C33.6794 10.0567 33.3561 10.12 32.9961 10.12ZM32.9961 9.43C33.4428 9.43 33.8028 9.29667 34.0761 9.03C34.3494 8.76333 34.4861 8.35 34.4861 7.79V7.05C34.4861 6.49 34.3494 6.07667 34.0761 5.81C33.8028 5.54333 33.4428 5.41 32.9961 5.41C32.5494 5.41 32.1894 5.54333 31.9161 5.81C31.6428 6.07667 31.5061 6.49 31.5061 7.05V7.79C31.5061 8.35 31.6428 8.76333 31.9161 9.03C32.1894 9.29667 32.5494 9.43 32.9961 9.43ZM39.2422 10C38.8489 10 38.5589 9.89 38.3722 9.67C38.1922 9.45 38.1022 9.16667 38.1022 8.82V5.52H36.3822V4.84H37.6622C37.8355 4.84 37.9555 4.80667 38.0222 4.74C38.0955 4.66667 38.1322 4.54333 38.1322 4.37V3.02H38.9022V4.84H41.2522V5.52H38.9022V9.32H41.2522V10H39.2422ZM45.0783 10.12C44.7049 10.12 44.3683 10.0567 44.0683 9.93C43.7749 9.80333 43.5216 9.62333 43.3083 9.39C43.1016 9.15 42.9416 8.86667 42.8283 8.54C42.7149 8.20667 42.6583 7.83667 42.6583 7.43C42.6583 7.01667 42.7149 6.64333 42.8283 6.31C42.9483 5.97667 43.1116 5.69333 43.3183 5.46C43.5249 5.22 43.7716 5.03667 44.0583 4.91C44.3516 4.78333 44.6749 4.72 45.0283 4.72C45.3749 4.72 45.6883 4.78333 45.9683 4.91C46.2549 5.03667 46.4983 5.21333 46.6983 5.44C46.8983 5.66 47.0516 5.92333 47.1583 6.23C47.2649 6.53667 47.3183 6.87333 47.3183 7.24V7.62H43.4983V7.86C43.4983 8.08667 43.5349 8.29667 43.6083 8.49C43.6816 8.68333 43.7849 8.85 43.9183 8.99C44.0583 9.13 44.2249 9.24 44.4183 9.32C44.6183 9.39333 44.8383 9.43 45.0783 9.43C45.4249 9.43 45.7249 9.35 45.9783 9.19C46.2316 9.03 46.4249 8.81 46.5583 8.53L47.1483 8.93C46.9949 9.27667 46.7383 9.56333 46.3783 9.79C46.0249 10.01 45.5916 10.12 45.0783 10.12ZM45.0283 5.38C44.8083 5.38 44.6049 5.42 44.4183 5.5C44.2316 5.58 44.0683 5.69 43.9283 5.83C43.7949 5.97 43.6883 6.13667 43.6083 6.33C43.5349 6.51667 43.4983 6.72333 43.4983 6.95V7.02H46.4583V6.91C46.4583 6.68333 46.4216 6.47667 46.3483 6.29C46.2816 6.10333 46.1849 5.94333 46.0583 5.81C45.9383 5.67 45.7883 5.56333 45.6083 5.49C45.4349 5.41667 45.2416 5.38 45.0283 5.38Z" fill="#1F1C20"/>
<g filter="url(#filter0_b_711_17653)">
<rect x="16" y="19" width="16" height="18" rx="5" fill="url(#paint0_linear_711_17653)"/>
<path d="M22.79 26.13H22.7V31.5H21.72V24.52H23.16L25.21 29.89H25.3V24.52H26.28V31.5H24.84L22.79 26.13Z" fill="white" fill-opacity="0.8"/>
<rect x="16.5" y="19.5" width="15" height="17" rx="4.5" stroke="url(#paint1_linear_711_17653)"/>
</g>
<defs>
<filter id="filter0_b_711_17653" x="-24" y="-21" width="96" height="98" filterUnits="userSpaceOnUse" color-interpolation-filters="sRGB">
<feFlood flood-opacity="0" result="BackgroundImageFix"/>
<feGaussianBlur in="BackgroundImageFix" stdDeviation="20"/>
<feComposite in2="SourceAlpha" operator="in" result="effect1_backgroundBlur_711_17653"/>
<feBlend mode="normal" in="SourceGraphic" in2="effect1_backgroundBlur_711_17653" result="shape"/>
</filter>
<linearGradient id="paint0_linear_711_17653" x1="16" y1="19" x2="35.9419" y2="29.5466" gradientUnits="userSpaceOnUse">
<stop stop-color="#464646"/>
<stop offset="1" stop-color="#9C9FA9"/>
</linearGradient>
<linearGradient id="paint1_linear_711_17653" x1="16" y1="19" x2="35.9482" y2="29.4969" gradientUnits="userSpaceOnUse">
<stop stop-color="#9C9FA9"/>
<stop offset="1" stop-color="#464646"/>
</linearGradient>
</defs>
</svg>
