<svg width="24" height="24" viewBox="0 0 24 24" fill="none" xmlns="http://www.w3.org/2000/svg">
<path d="M8.64646 15.4957C10.5511 17.4004 12.6833 18.6818 14.5714 19.23C16.4792 19.7839 18.0141 19.5631 18.8995 18.6777C19.7849 17.7923 20.0057 16.2573 19.4518 14.3496C18.9037 12.4615 17.6222 10.3293 15.7175 8.42462C13.8129 6.51996 11.6806 5.23847 9.79259 4.69033C7.8848 4.13646 6.3499 4.35722 5.46448 5.24264C4.57906 6.12806 4.35829 7.66297 4.91216 9.57075C5.46031 11.4588 6.74179 13.591 8.64646 15.4957Z" stroke="#1F1C20"/>
<path d="M12.5897 15.7674C13.2014 15.249 13.8185 14.6815 14.4289 14.0711C18.3342 10.1658 20.4845 5.98454 19.2319 4.73191C18.3996 3.89959 16.2742 4.56971 13.796 6.25879M8.35778 18.6065C6.85776 19.3069 5.66499 19.4493 5.08978 18.874C4.24315 18.0274 4.95105 15.843 6.70462 13.3101" stroke="#1F1C20" stroke-linecap="round"/>
</svg>
