<svg width="60" height="37" viewBox="0 0 60 37" fill="none" xmlns="http://www.w3.org/2000/svg">
<path d="M1.64953 4.09H1.57953V10H0.819531V3.02H2.00953L4.38953 8.87H4.45953V3.02H5.21953V10H4.02953L1.64953 4.09ZM9.10563 10.12C8.73229 10.12 8.39563 10.0567 8.09563 9.93C7.80229 9.80333 7.54896 9.62333 7.33562 9.39C7.12896 9.15 6.96896 8.86667 6.85563 8.54C6.74229 8.20667 6.68563 7.83667 6.68563 7.43C6.68563 7.01667 6.74229 6.64333 6.85563 6.31C6.97563 5.97667 7.13896 5.69333 7.34563 5.46C7.55229 5.22 7.79896 5.03667 8.08563 4.91C8.37896 4.78333 8.70229 4.72 9.05563 4.72C9.40229 4.72 9.71563 4.78333 9.99563 4.91C10.2823 5.03667 10.5256 5.21333 10.7256 5.44C10.9256 5.66 11.079 5.92333 11.1856 6.23C11.2923 6.53667 11.3456 6.87333 11.3456 7.24V7.62H7.52563V7.86C7.52563 8.08667 7.56229 8.29667 7.63563 8.49C7.70896 8.68333 7.81229 8.85 7.94563 8.99C8.08563 9.13 8.25229 9.24 8.44563 9.32C8.64563 9.39333 8.86563 9.43 9.10563 9.43C9.45229 9.43 9.75229 9.35 10.0056 9.19C10.259 9.03 10.4523 8.81 10.5856 8.53L11.1756 8.93C11.0223 9.27667 10.7656 9.56333 10.4056 9.79C10.0523 10.01 9.61896 10.12 9.10563 10.12ZM9.05563 5.38C8.83563 5.38 8.63229 5.42 8.44563 5.5C8.25896 5.58 8.09563 5.69 7.95563 5.83C7.82229 5.97 7.71563 6.13667 7.63563 6.33C7.56229 6.51667 7.52563 6.72333 7.52563 6.95V7.02H10.4856V6.91C10.4856 6.68333 10.449 6.47667 10.3756 6.29C10.309 6.10333 10.2123 5.94333 10.0856 5.81C9.96563 5.67 9.81563 5.56333 9.63563 5.49C9.46229 5.41667 9.26896 5.38 9.05563 5.38ZM12.3117 4.84H13.0217L13.6117 9.3H13.7017L14.5817 4.84H15.4617L16.3417 9.3H16.4317L17.0217 4.84H17.7117L16.9217 10H15.8817L15.0617 5.68H14.9817L14.1417 10H13.1017L12.3117 4.84ZM24.9039 10V3.02H27.4439C28.0906 3.02 28.5839 3.19667 28.9239 3.55C29.2639 3.90333 29.4339 4.39667 29.4339 5.03C29.4339 5.66333 29.2639 6.15667 28.9239 6.51C28.5839 6.86333 28.0906 7.04 27.4439 7.04H25.7439V10H24.9039ZM25.7439 6.31H27.4239C27.7772 6.31 28.0506 6.22333 28.2439 6.05C28.4439 5.87 28.5439 5.61667 28.5439 5.29V4.77C28.5439 4.44333 28.4439 4.19333 28.2439 4.02C28.0506 3.84 27.7772 3.75 27.4239 3.75H25.7439V6.31ZM33 10.12C32.64 10.12 32.3133 10.0567 32.02 9.93C31.7333 9.80333 31.4867 9.62333 31.28 9.39C31.08 9.15 30.9267 8.86667 30.82 8.54C30.7133 8.20667 30.66 7.83333 30.66 7.42C30.66 7.01333 30.7133 6.64333 30.82 6.31C30.9267 5.97667 31.08 5.69333 31.28 5.46C31.4867 5.22 31.7333 5.03667 32.02 4.91C32.3133 4.78333 32.64 4.72 33 4.72C33.36 4.72 33.6833 4.78333 33.97 4.91C34.2633 5.03667 34.51 5.22 34.71 5.46C34.9167 5.69333 35.0733 5.97667 35.18 6.31C35.2867 6.64333 35.34 7.01333 35.34 7.42C35.34 7.83333 35.2867 8.20667 35.18 8.54C35.0733 8.86667 34.9167 9.15 34.71 9.39C34.51 9.62333 34.2633 9.80333 33.97 9.93C33.6833 10.0567 33.36 10.12 33 10.12ZM33 9.43C33.4467 9.43 33.8067 9.29667 34.08 9.03C34.3533 8.76333 34.49 8.35 34.49 7.79V7.05C34.49 6.49 34.3533 6.07667 34.08 5.81C33.8067 5.54333 33.4467 5.41 33 5.41C32.5533 5.41 32.1933 5.54333 31.92 5.81C31.6467 6.07667 31.51 6.49 31.51 7.05V7.79C31.51 8.35 31.6467 8.76333 31.92 9.03C32.1933 9.29667 32.5533 9.43 33 9.43ZM36.7661 9.32H38.2761V5.52H36.7661V4.84H39.0761V6.14H39.1261C39.2328 5.73333 39.4328 5.41667 39.7261 5.19C40.0261 4.95667 40.4061 4.84 40.8661 4.84H41.5861V5.64H40.6161C40.1561 5.64 39.7828 5.77333 39.4961 6.04C39.2161 6.30667 39.0761 6.65667 39.0761 7.09V9.32H41.0761V10H36.7661V9.32ZM45.2422 10C44.8489 10 44.5589 9.89 44.3722 9.67C44.1922 9.45 44.1022 9.16667 44.1022 8.82V5.52H42.3822V4.84H43.6622C43.8355 4.84 43.9555 4.80667 44.0222 4.74C44.0955 4.66667 44.1322 4.54333 44.1322 4.37V3.02H44.9022V4.84H47.2522V5.52H44.9022V9.32H47.2522V10H45.2422ZM52.9383 10C52.6249 10 52.4016 9.92 52.2683 9.76C52.1349 9.6 52.0516 9.4 52.0183 9.16H51.9683C51.8549 9.46 51.6716 9.69667 51.4183 9.87C51.1716 10.0367 50.8383 10.12 50.4183 10.12C49.8783 10.12 49.4483 9.98 49.1283 9.7C48.8083 9.42 48.6483 9.03667 48.6483 8.55C48.6483 8.07 48.8216 7.7 49.1683 7.44C49.5216 7.18 50.0883 7.05 50.8683 7.05H51.9683V6.54C51.9683 6.16 51.8616 5.87667 51.6483 5.69C51.4349 5.49667 51.1316 5.4 50.7383 5.4C50.3916 5.4 50.1083 5.47 49.8883 5.61C49.6683 5.74333 49.4916 5.92667 49.3583 6.16L48.8183 5.76C48.8849 5.62667 48.9749 5.49667 49.0883 5.37C49.2016 5.24333 49.3416 5.13333 49.5083 5.04C49.6749 4.94 49.8649 4.86333 50.0783 4.81C50.2916 4.75 50.5283 4.72 50.7883 4.72C51.3949 4.72 51.8749 4.87333 52.2283 5.18C52.5883 5.48667 52.7683 5.91333 52.7683 6.46V9.3H53.4883V10H52.9383ZM50.5583 9.45C50.7649 9.45 50.9516 9.42667 51.1183 9.38C51.2916 9.32667 51.4416 9.26 51.5683 9.18C51.6949 9.09333 51.7916 8.99333 51.8583 8.88C51.9316 8.76 51.9683 8.63333 51.9683 8.5V7.65H50.8683C50.3883 7.65 50.0383 7.71667 49.8183 7.85C49.5983 7.98333 49.4883 8.17667 49.4883 8.43V8.64C49.4883 8.90667 49.5816 9.11 49.7683 9.25C49.9616 9.38333 50.2249 9.45 50.5583 9.45ZM54.7844 9.32H56.5844V3.28H54.7844V2.6H57.3844V9.32H59.1844V10H54.7844V9.32Z" fill="#1F1C20"/>
<g filter="url(#filter0_b_711_17847)">
<rect x="22" y="19" width="16" height="18" rx="5" fill="url(#paint0_linear_711_17847)"/>
<path d="M27.84 31V24.02H30.45C31.1167 24.02 31.6233 24.2067 31.97 24.58C32.3233 24.9533 32.5 25.4667 32.5 26.12C32.5 26.7733 32.3233 27.2867 31.97 27.66C31.6233 28.0333 31.1167 28.22 30.45 28.22H28.96V31H27.84ZM28.96 27.29H30.28C30.9733 27.29 31.32 26.97 31.32 26.33V25.9C31.32 25.2667 30.9733 24.95 30.28 24.95H28.96V27.29Z" fill="white"/>
<rect x="22.5" y="19.5" width="15" height="17" rx="4.5" stroke="url(#paint1_linear_711_17847)"/>
</g>
<defs>
<filter id="filter0_b_711_17847" x="-18" y="-21" width="96" height="98" filterUnits="userSpaceOnUse" color-interpolation-filters="sRGB">
<feFlood flood-opacity="0" result="BackgroundImageFix"/>
<feGaussianBlur in="BackgroundImageFix" stdDeviation="20"/>
<feComposite in2="SourceAlpha" operator="in" result="effect1_backgroundBlur_711_17847"/>
<feBlend mode="normal" in="SourceGraphic" in2="effect1_backgroundBlur_711_17847" result="shape"/>
</filter>
<linearGradient id="paint0_linear_711_17847" x1="22" y1="19" x2="41.9419" y2="29.5466" gradientUnits="userSpaceOnUse">
<stop stop-color="#464646"/>
<stop offset="1" stop-color="#9C9FA9"/>
</linearGradient>
<linearGradient id="paint1_linear_711_17847" x1="22" y1="19" x2="41.9482" y2="29.4969" gradientUnits="userSpaceOnUse">
<stop stop-color="#9C9FA9"/>
<stop offset="1" stop-color="#464646"/>
</linearGradient>
</defs>
</svg>
