<svg width="24" height="24" viewBox="0 0 24 24" fill="none" xmlns="http://www.w3.org/2000/svg">
<path d="M20.8194 8.03904C21.204 8.97437 21.4287 9.96635 21.4856 10.9737H13.0263V2.5144C14.0337 2.57127 15.0257 2.79607 15.9611 3.18061C18.1579 4.09601 19.9041 5.84223 20.8194 8.03904Z" stroke="#1F1C20"/>
<path d="M3.18055 15.961C2.79604 15.0256 2.57126 14.0337 2.51439 13.0263H10.9737V21.4856C9.96629 21.4287 8.97426 21.2039 8.03889 20.8194C5.8421 19.904 4.0959 18.1578 3.18055 15.961Z" stroke="#1F1C20"/>
<path d="M17.2483 13.034L17.2638 13.035H17.2794C18.6824 13.035 19.7244 13.5149 20.418 14.2549C21.1163 15 21.5 16.0506 21.5 17.2549C21.5 18.4594 21.1161 19.5171 20.4167 20.2688C19.7225 21.0151 18.6805 21.5 17.2794 21.5C15.8645 21.5 14.8163 21.0142 14.1194 20.2681C13.4174 19.5166 13.0336 18.4593 13.0336 17.2549V17.2406L13.0328 17.2264C13.0008 16.6656 13.0881 16.1043 13.2889 15.5797C13.4897 15.055 13.7995 14.5789 14.1979 14.1827C14.5962 13.7866 15.0741 13.4794 15.5999 13.2813C16.1257 13.0833 16.6875 12.999 17.2483 13.034Z" stroke="#1F1C20"/>
<rect x="2.5" y="2.5" width="8.47368" height="8.47368" rx="1.5" stroke="#1F1C20"/>
</svg>
