<svg width="36" height="37" viewBox="0 0 36 37" fill="none" xmlns="http://www.w3.org/2000/svg">
<path d="M2.99172 10.12C2.36505 10.12 1.85172 10.0067 1.45172 9.78C1.05172 9.54667 0.721719 9.25 0.461719 8.89L1.07172 8.39C1.34505 8.73 1.63172 8.98333 1.93172 9.15C2.23839 9.31667 2.60172 9.4 3.02172 9.4C3.52839 9.4 3.91505 9.28333 4.18172 9.05C4.44839 8.81667 4.58172 8.49 4.58172 8.07C4.58172 7.73 4.48505 7.46667 4.29172 7.28C4.09839 7.08667 3.76172 6.95 3.28172 6.87L2.50172 6.74C2.16172 6.68 1.87505 6.59 1.64172 6.47C1.41505 6.35 1.23172 6.20667 1.09172 6.04C0.951719 5.86667 0.851719 5.68 0.791719 5.48C0.731719 5.27333 0.701719 5.06 0.701719 4.84C0.701719 4.2 0.911719 3.71667 1.33172 3.39C1.75172 3.06333 2.31839 2.9 3.03172 2.9C3.59172 2.9 4.06172 2.99333 4.44172 3.18C4.82839 3.36667 5.13839 3.63 5.37172 3.97L4.78172 4.48C4.58839 4.22667 4.35505 4.02 4.08172 3.86C3.80839 3.7 3.45505 3.62 3.02172 3.62C2.54839 3.62 2.18505 3.72 1.93172 3.92C1.67839 4.12 1.55172 4.42 1.55172 4.82C1.55172 5.13333 1.64505 5.39 1.83172 5.59C2.02505 5.78333 2.36839 5.92333 2.86172 6.01L3.61172 6.14C3.95172 6.2 4.23839 6.29 4.47172 6.41C4.70505 6.53 4.89172 6.67333 5.03172 6.84C5.17839 7.00667 5.28172 7.19333 5.34172 7.4C5.40172 7.60667 5.43172 7.82333 5.43172 8.05C5.43172 8.69667 5.21839 9.20333 4.79172 9.57C4.37172 9.93667 3.77172 10.12 2.99172 10.12ZM9.09781 10.12C8.72448 10.12 8.38781 10.0567 8.08781 9.93C7.79448 9.80333 7.54115 9.62333 7.32781 9.39C7.12115 9.15 6.96115 8.86667 6.84781 8.54C6.73448 8.20667 6.67781 7.83667 6.67781 7.43C6.67781 7.01667 6.73448 6.64333 6.84781 6.31C6.96781 5.97667 7.13115 5.69333 7.33781 5.46C7.54448 5.22 7.79115 5.03667 8.07781 4.91C8.37115 4.78333 8.69448 4.72 9.04781 4.72C9.39448 4.72 9.70781 4.78333 9.98781 4.91C10.2745 5.03667 10.5178 5.21333 10.7178 5.44C10.9178 5.66 11.0711 5.92333 11.1778 6.23C11.2845 6.53667 11.3378 6.87333 11.3378 7.24V7.62H7.51781V7.86C7.51781 8.08667 7.55448 8.29667 7.62781 8.49C7.70115 8.68333 7.80448 8.85 7.93781 8.99C8.07781 9.13 8.24448 9.24 8.43781 9.32C8.63781 9.39333 8.85781 9.43 9.09781 9.43C9.44448 9.43 9.74448 9.35 9.99781 9.19C10.2511 9.03 10.4445 8.81 10.5778 8.53L11.1678 8.93C11.0145 9.27667 10.7578 9.56333 10.3978 9.79C10.0445 10.01 9.61115 10.12 9.09781 10.12ZM9.04781 5.38C8.82781 5.38 8.62448 5.42 8.43781 5.5C8.25115 5.58 8.08781 5.69 7.94781 5.83C7.81448 5.97 7.70781 6.13667 7.62781 6.33C7.55448 6.51667 7.51781 6.72333 7.51781 6.95V7.02H10.4778V6.91C10.4778 6.68333 10.4411 6.47667 10.3678 6.29C10.3011 6.10333 10.2045 5.94333 10.0778 5.81C9.95781 5.67 9.80781 5.56333 9.62781 5.49C9.45448 5.41667 9.26115 5.38 9.04781 5.38ZM16.9539 10C16.6406 10 16.4172 9.92 16.2839 9.76C16.1506 9.6 16.0672 9.4 16.0339 9.16H15.9839C15.8706 9.46 15.6872 9.69667 15.4339 9.87C15.1872 10.0367 14.8539 10.12 14.4339 10.12C13.8939 10.12 13.4639 9.98 13.1439 9.7C12.8239 9.42 12.6639 9.03667 12.6639 8.55C12.6639 8.07 12.8372 7.7 13.1839 7.44C13.5372 7.18 14.1039 7.05 14.8839 7.05H15.9839V6.54C15.9839 6.16 15.8772 5.87667 15.6639 5.69C15.4506 5.49667 15.1472 5.4 14.7539 5.4C14.4072 5.4 14.1239 5.47 13.9039 5.61C13.6839 5.74333 13.5072 5.92667 13.3739 6.16L12.8339 5.76C12.9006 5.62667 12.9906 5.49667 13.1039 5.37C13.2172 5.24333 13.3572 5.13333 13.5239 5.04C13.6906 4.94 13.8806 4.86333 14.0939 4.81C14.3072 4.75 14.5439 4.72 14.8039 4.72C15.4106 4.72 15.8906 4.87333 16.2439 5.18C16.6039 5.48667 16.7839 5.91333 16.7839 6.46V9.3H17.5039V10H16.9539ZM14.5739 9.45C14.7806 9.45 14.9672 9.42667 15.1339 9.38C15.3072 9.32667 15.4572 9.26 15.5839 9.18C15.7106 9.09333 15.8072 8.99333 15.8739 8.88C15.9472 8.76 15.9839 8.63333 15.9839 8.5V7.65H14.8839C14.4039 7.65 14.0539 7.71667 13.8339 7.85C13.6139 7.98333 13.5039 8.17667 13.5039 8.43V8.64C13.5039 8.90667 13.5972 9.11 13.7839 9.25C13.9772 9.38333 14.2406 9.45 14.5739 9.45ZM18.77 9.32H20.28V5.52H18.77V4.84H21.08V6.14H21.13C21.2367 5.73333 21.4367 5.41667 21.73 5.19C22.03 4.95667 22.41 4.84 22.87 4.84H23.59V5.64H22.62C22.16 5.64 21.7867 5.77333 21.5 6.04C21.22 6.30667 21.08 6.65667 21.08 7.09V9.32H23.08V10H18.77V9.32ZM27.1761 10.12C26.8028 10.12 26.4694 10.0567 26.1761 9.93C25.8894 9.79667 25.6461 9.61333 25.4461 9.38C25.2461 9.14667 25.0928 8.86333 24.9861 8.53C24.8861 8.19667 24.8361 7.82667 24.8361 7.42C24.8361 7.01333 24.8894 6.64333 24.9961 6.31C25.1028 5.97667 25.2561 5.69333 25.4561 5.46C25.6561 5.22 25.8994 5.03667 26.1861 4.91C26.4728 4.78333 26.7994 4.72 27.1661 4.72C27.6661 4.72 28.0728 4.83 28.3861 5.05C28.6994 5.27 28.9294 5.55667 29.0761 5.91L28.4361 6.25C28.3428 5.98333 28.1861 5.77667 27.9661 5.63C27.7528 5.48333 27.4861 5.41 27.1661 5.41C26.9328 5.41 26.7228 5.45 26.5361 5.53C26.3561 5.60333 26.2028 5.71 26.0761 5.85C25.9494 5.99 25.8528 6.15667 25.7861 6.35C25.7261 6.54333 25.6961 6.75333 25.6961 6.98V7.86C25.6961 8.08667 25.7261 8.29667 25.7861 8.49C25.8528 8.68333 25.9494 8.85 26.0761 8.99C26.2028 9.13 26.3594 9.24 26.5461 9.32C26.7328 9.39333 26.9461 9.43 27.1861 9.43C27.5328 9.43 27.8194 9.35 28.0461 9.19C28.2728 9.03 28.4528 8.81 28.5861 8.53L29.1561 8.92C29.0028 9.26667 28.7628 9.55333 28.4361 9.78C28.1161 10.0067 27.6961 10.12 27.1761 10.12ZM30.9722 2.6H31.7722V5.68H31.8122C31.8655 5.55333 31.9322 5.43333 32.0122 5.32C32.0922 5.2 32.1889 5.09667 32.3022 5.01C32.4222 4.92333 32.5622 4.85333 32.7222 4.8C32.8822 4.74667 33.0689 4.72 33.2822 4.72C33.8222 4.72 34.2555 4.89333 34.5822 5.24C34.9089 5.58 35.0722 6.06333 35.0722 6.69V10H34.2722V6.83C34.2722 6.35667 34.1689 6.00667 33.9622 5.78C33.7555 5.54667 33.4522 5.43 33.0522 5.43C32.8922 5.43 32.7355 5.45 32.5822 5.49C32.4289 5.53 32.2922 5.59 32.1722 5.67C32.0522 5.75 31.9555 5.85333 31.8822 5.98C31.8089 6.10667 31.7722 6.25333 31.7722 6.42V10H30.9722V2.6Z" fill="#1F1C20"/>
<g filter="url(#filter0_b_711_17503)">
<rect x="4.5" y="19" width="27" height="18" rx="5" fill="url(#paint0_linear_711_17503)"/>
<path d="M16.7 28.9H15.8V27.1H16.7C17.694 27.1 18.5 26.294 18.5 25.3C18.5 24.3059 17.694 23.5 16.7 23.5C15.7058 23.5 14.9 24.3059 14.9 25.3V26.2H13.1V25.3C13.1 24.3059 12.294 23.5 11.3 23.5C10.3059 23.5 9.5 24.3059 9.5 25.3C9.5 26.294 10.3059 27.1 11.3 27.1H12.2V28.9H11.3C10.3059 28.9 9.5 29.7059 9.5 30.7C9.5 31.694 10.3059 32.5 11.3 32.5C12.2942 32.5 13.1 31.694 13.1 30.7V29.8H14.9V30.6977C14.9 30.6986 14.8999 30.6993 14.8999 30.7C14.8999 31.694 15.7058 32.5 16.6999 32.5C17.6939 32.5 18.4999 31.694 18.4999 30.7C18.4999 29.7059 17.694 28.9002 16.7 28.9ZM16.7 24.4C17.197 24.4 17.6 24.803 17.6 25.3C17.6 25.797 17.197 26.2 16.7 26.2H15.8V25.3C15.8 24.803 16.203 24.4 16.7 24.4ZM10.4 25.3C10.4 24.803 10.803 24.4 11.3 24.4C11.797 24.4 12.2 24.803 12.2 25.3V26.2H11.3C10.803 26.2 10.4 25.7969 10.4 25.3ZM11.3 31.6C10.803 31.6 10.4 31.197 10.4 30.7C10.4 30.203 10.803 29.8 11.3 29.8H12.2V30.7C12.2 31.197 11.797 31.6 11.3 31.6ZM13.1 28.9V27.1H14.9V28.9H13.1ZM16.7 31.6C16.203 31.6 15.8 31.197 15.8 30.7V29.8H16.6999C17.1969 29.8 17.5999 30.203 17.5999 30.7C17.5999 31.197 17.197 31.6 16.7 31.6Z" fill="white"/>
<path d="M21.33 32.88L24.7 23.9H25.67L22.3 32.88H21.33Z" fill="white"/>
<rect x="5" y="19.5" width="26" height="17" rx="4.5" stroke="url(#paint1_linear_711_17503)"/>
</g>
<defs>
<filter id="filter0_b_711_17503" x="-35.5" y="-21" width="107" height="98" filterUnits="userSpaceOnUse" color-interpolation-filters="sRGB">
<feFlood flood-opacity="0" result="BackgroundImageFix"/>
<feGaussianBlur in="BackgroundImageFix" stdDeviation="20"/>
<feComposite in2="SourceAlpha" operator="in" result="effect1_backgroundBlur_711_17503"/>
<feBlend mode="normal" in="SourceGraphic" in2="effect1_backgroundBlur_711_17503" result="shape"/>
</filter>
<linearGradient id="paint0_linear_711_17503" x1="4.5" y1="19" x2="28.4714" y2="40.3935" gradientUnits="userSpaceOnUse">
<stop stop-color="#464646"/>
<stop offset="1" stop-color="#9C9FA9"/>
</linearGradient>
<linearGradient id="paint1_linear_711_17503" x1="4.5" y1="19" x2="28.5333" y2="40.3409" gradientUnits="userSpaceOnUse">
<stop stop-color="#9C9FA9"/>
<stop offset="1" stop-color="#464646"/>
</linearGradient>
</defs>
</svg>
