<svg width="60" height="37" viewBox="0 0 60 37" fill="none" xmlns="http://www.w3.org/2000/svg">
<path d="M1.64953 4.09H1.57953V10H0.819531V3.02H2.00953L4.38953 8.87H4.45953V3.02H5.21953V10H4.02953L1.64953 4.09ZM9.10563 10.12C8.73229 10.12 8.39563 10.0567 8.09563 9.93C7.80229 9.80333 7.54896 9.62333 7.33562 9.39C7.12896 9.15 6.96896 8.86667 6.85563 8.54C6.74229 8.20667 6.68563 7.83667 6.68563 7.43C6.68563 7.01667 6.74229 6.64333 6.85563 6.31C6.97563 5.97667 7.13896 5.69333 7.34563 5.46C7.55229 5.22 7.79896 5.03667 8.08563 4.91C8.37896 4.78333 8.70229 4.72 9.05563 4.72C9.40229 4.72 9.71563 4.78333 9.99563 4.91C10.2823 5.03667 10.5256 5.21333 10.7256 5.44C10.9256 5.66 11.079 5.92333 11.1856 6.23C11.2923 6.53667 11.3456 6.87333 11.3456 7.24V7.62H7.52563V7.86C7.52563 8.08667 7.56229 8.29667 7.63563 8.49C7.70896 8.68333 7.81229 8.85 7.94563 8.99C8.08563 9.13 8.25229 9.24 8.44563 9.32C8.64563 9.39333 8.86563 9.43 9.10563 9.43C9.45229 9.43 9.75229 9.35 10.0056 9.19C10.259 9.03 10.4523 8.81 10.5856 8.53L11.1756 8.93C11.0223 9.27667 10.7656 9.56333 10.4056 9.79C10.0523 10.01 9.61896 10.12 9.10563 10.12ZM9.05563 5.38C8.83563 5.38 8.63229 5.42 8.44563 5.5C8.25896 5.58 8.09563 5.69 7.95563 5.83C7.82229 5.97 7.71563 6.13667 7.63563 6.33C7.56229 6.51667 7.52563 6.72333 7.52563 6.95V7.02H10.4856V6.91C10.4856 6.68333 10.449 6.47667 10.3756 6.29C10.309 6.10333 10.2123 5.94333 10.0856 5.81C9.96563 5.67 9.81563 5.56333 9.63563 5.49C9.46229 5.41667 9.26896 5.38 9.05563 5.38ZM12.3117 4.84H13.0217L13.6117 9.3H13.7017L14.5817 4.84H15.4617L16.3417 9.3H16.4317L17.0217 4.84H17.7117L16.9217 10H15.8817L15.0617 5.68H14.9817L14.1417 10H13.1017L12.3117 4.84ZM26.9839 10.12C26.3572 10.12 25.8439 10.0067 25.4439 9.78C25.0439 9.54667 24.7139 9.25 24.4539 8.89L25.0639 8.39C25.3372 8.73 25.6239 8.98333 25.9239 9.15C26.2306 9.31667 26.5939 9.4 27.0139 9.4C27.5206 9.4 27.9072 9.28333 28.1739 9.05C28.4406 8.81667 28.5739 8.49 28.5739 8.07C28.5739 7.73 28.4772 7.46667 28.2839 7.28C28.0906 7.08667 27.7539 6.95 27.2739 6.87L26.4939 6.74C26.1539 6.68 25.8672 6.59 25.6339 6.47C25.4072 6.35 25.2239 6.20667 25.0839 6.04C24.9439 5.86667 24.8439 5.68 24.7839 5.48C24.7239 5.27333 24.6939 5.06 24.6939 4.84C24.6939 4.2 24.9039 3.71667 25.3239 3.39C25.7439 3.06333 26.3106 2.9 27.0239 2.9C27.5839 2.9 28.0539 2.99333 28.4339 3.18C28.8206 3.36667 29.1306 3.63 29.3639 3.97L28.7739 4.48C28.5806 4.22667 28.3472 4.02 28.0739 3.86C27.8006 3.7 27.4472 3.62 27.0139 3.62C26.5406 3.62 26.1772 3.72 25.9239 3.92C25.6706 4.12 25.5439 4.42 25.5439 4.82C25.5439 5.13333 25.6372 5.39 25.8239 5.59C26.0172 5.78333 26.3606 5.92333 26.8539 6.01L27.6039 6.14C27.9439 6.2 28.2306 6.29 28.4639 6.41C28.6972 6.53 28.8839 6.67333 29.0239 6.84C29.1706 7.00667 29.2739 7.19333 29.3339 7.4C29.3939 7.60667 29.4239 7.82333 29.4239 8.05C29.4239 8.69667 29.2106 9.20333 28.7839 9.57C28.3639 9.93667 27.7639 10.12 26.9839 10.12ZM33.25 10C32.8567 10 32.5667 9.89 32.38 9.67C32.2 9.45 32.11 9.16667 32.11 8.82V5.52H30.39V4.84H31.67C31.8433 4.84 31.9633 4.80667 32.03 4.74C32.1033 4.66667 32.14 4.54333 32.14 4.37V3.02H32.91V4.84H35.26V5.52H32.91V9.32H35.26V10H33.25ZM39.3161 3.7C39.0828 3.7 38.9194 3.65333 38.8261 3.56C38.7328 3.46 38.6861 3.33667 38.6861 3.19V3.03C38.6861 2.88333 38.7328 2.76333 38.8261 2.67C38.9194 2.57 39.0828 2.52 39.3161 2.52C39.5494 2.52 39.7128 2.57 39.8061 2.67C39.8994 2.76333 39.9461 2.88333 39.9461 3.03V3.19C39.9461 3.33667 39.8994 3.46 39.8061 3.56C39.7128 3.65333 39.5494 3.7 39.3161 3.7ZM37.0561 9.32H38.9161V5.52H37.0561V4.84H39.7161V9.32H41.4561V10H37.0561V9.32ZM45.1722 10.12C44.7989 10.12 44.4655 10.0567 44.1722 9.93C43.8855 9.79667 43.6422 9.61333 43.4422 9.38C43.2422 9.14667 43.0889 8.86333 42.9822 8.53C42.8822 8.19667 42.8322 7.82667 42.8322 7.42C42.8322 7.01333 42.8855 6.64333 42.9922 6.31C43.0989 5.97667 43.2522 5.69333 43.4522 5.46C43.6522 5.22 43.8955 5.03667 44.1822 4.91C44.4689 4.78333 44.7955 4.72 45.1622 4.72C45.6622 4.72 46.0689 4.83 46.3822 5.05C46.6955 5.27 46.9255 5.55667 47.0722 5.91L46.4322 6.25C46.3389 5.98333 46.1822 5.77667 45.9622 5.63C45.7489 5.48333 45.4822 5.41 45.1622 5.41C44.9289 5.41 44.7189 5.45 44.5322 5.53C44.3522 5.60333 44.1989 5.71 44.0722 5.85C43.9455 5.99 43.8489 6.15667 43.7822 6.35C43.7222 6.54333 43.6922 6.75333 43.6922 6.98V7.86C43.6922 8.08667 43.7222 8.29667 43.7822 8.49C43.8489 8.68333 43.9455 8.85 44.0722 8.99C44.1989 9.13 44.3555 9.24 44.5422 9.32C44.7289 9.39333 44.9422 9.43 45.1822 9.43C45.5289 9.43 45.8155 9.35 46.0422 9.19C46.2689 9.03 46.4489 8.81 46.5822 8.53L47.1522 8.92C46.9989 9.26667 46.7589 9.55333 46.4322 9.78C46.1122 10.0067 45.6922 10.12 45.1722 10.12ZM49.0383 2.6H49.8383V7.27H49.8783L50.7783 6.42L52.4983 4.84H53.4783L51.3383 6.86L53.7283 10H52.7383L50.7283 7.32L49.8383 8.13V10H49.0383V2.6ZM58.6544 4.84H59.4544L56.8944 11.13C56.8344 11.2767 56.7677 11.4033 56.6944 11.51C56.621 11.6233 56.5344 11.7133 56.4344 11.78C56.3344 11.8533 56.2144 11.9067 56.0744 11.94C55.9344 11.98 55.7677 12 55.5744 12H54.8144V11.32H56.0144L56.5944 9.9L54.5144 4.84H55.3344L56.2044 7L56.9744 8.96H57.0144L57.7844 7L58.6544 4.84Z" fill="#1F1C20"/>
<g filter="url(#filter0_b_711_17723)">
<rect x="22" y="19" width="16" height="18" rx="5" fill="url(#paint0_linear_711_17723)"/>
<path d="M29.94 31.62C29.3333 31.62 28.8233 31.5133 28.41 31.3C27.9967 31.0867 27.6567 30.8033 27.39 30.45L28.11 29.76C28.3767 30.08 28.66 30.3167 28.96 30.47C29.26 30.6167 29.6 30.69 29.98 30.69C30.42 30.69 30.7567 30.59 30.99 30.39C31.23 30.19 31.35 29.9033 31.35 29.53C31.35 29.23 31.2633 29 31.09 28.84C30.9167 28.6733 30.62 28.5533 30.2 28.48L29.44 28.36C29.1067 28.3067 28.8267 28.22 28.6 28.1C28.3733 27.9733 28.19 27.8267 28.05 27.66C27.91 27.4867 27.8067 27.2967 27.74 27.09C27.68 26.8767 27.65 26.6533 27.65 26.42C27.65 25.76 27.8633 25.26 28.29 24.92C28.7167 24.5733 29.3033 24.4 30.05 24.4C30.6033 24.4 31.0733 24.49 31.46 24.67C31.8533 24.8433 32.17 25.09 32.41 25.41L31.71 26.11C31.5167 25.8767 31.2867 25.69 31.02 25.55C30.76 25.4033 30.4367 25.33 30.05 25.33C29.6367 25.33 29.32 25.42 29.1 25.6C28.8867 25.7733 28.78 26.03 28.78 26.37C28.78 26.6567 28.8633 26.8833 29.03 27.05C29.2033 27.21 29.5067 27.3267 29.94 27.4L30.68 27.53C31.3067 27.6433 31.7633 27.8733 32.05 28.22C32.3367 28.56 32.48 28.9767 32.48 29.47C32.48 29.79 32.4233 30.0833 32.31 30.35C32.2033 30.6167 32.04 30.8433 31.82 31.03C31.6067 31.2167 31.34 31.3633 31.02 31.47C30.7067 31.57 30.3467 31.62 29.94 31.62Z" fill="white"/>
<rect x="22.5" y="19.5" width="15" height="17" rx="4.5" stroke="url(#paint1_linear_711_17723)"/>
</g>
<defs>
<filter id="filter0_b_711_17723" x="-18" y="-21" width="96" height="98" filterUnits="userSpaceOnUse" color-interpolation-filters="sRGB">
<feFlood flood-opacity="0" result="BackgroundImageFix"/>
<feGaussianBlur in="BackgroundImageFix" stdDeviation="20"/>
<feComposite in2="SourceAlpha" operator="in" result="effect1_backgroundBlur_711_17723"/>
<feBlend mode="normal" in="SourceGraphic" in2="effect1_backgroundBlur_711_17723" result="shape"/>
</filter>
<linearGradient id="paint0_linear_711_17723" x1="22" y1="19" x2="41.9419" y2="29.5466" gradientUnits="userSpaceOnUse">
<stop stop-color="#464646"/>
<stop offset="1" stop-color="#9C9FA9"/>
</linearGradient>
<linearGradient id="paint1_linear_711_17723" x1="22" y1="19" x2="41.9482" y2="29.4969" gradientUnits="userSpaceOnUse">
<stop stop-color="#9C9FA9"/>
<stop offset="1" stop-color="#464646"/>
</linearGradient>
</defs>
</svg>
